<?xml version="1.0" encoding="UTF-8"?>
<svg width="136px" height="136px" viewBox="0 0 136 136" version="1.1" xmlns="http://www.w3.org/2000/svg" xmlns:xlink="http://www.w3.org/1999/xlink">
    <!-- Generator: sketchtool 50.2 (55047) - http://www.bohemiancoding.com/sketch -->
    <title>3AA82B09-3251-4C42-A6A1-11550EE258A4</title>
    <desc>Created with sketchtool.</desc>
    <defs>
        <linearGradient x1="0%" y1="0%" x2="100%" y2="100%" id="linearGradient-1">
            <stop stop-color="#FFD449" offset="0%"></stop>
            <stop stop-color="#FF7C32" offset="100%"></stop>
        </linearGradient>
        <circle id="path-2" cx="44" cy="44" r="44"></circle>
        <filter x="-38.1%" y="-33.5%" width="203.4%" height="203.4%" filterUnits="objectBoundingBox" id="filter-3">
            <feOffset dx="12" dy="16" in="SourceAlpha" result="shadowOffsetOuter1"></feOffset>
            <feGaussianBlur stdDeviation="12.5" in="shadowOffsetOuter1" result="shadowBlurOuter1"></feGaussianBlur>
            <feColorMatrix values="0 0 0 0 0.925490196   0 0 0 0 0.62745098   0 0 0 0 0.419607843  0 0 0 0.3 0" type="matrix" in="shadowBlurOuter1"></feColorMatrix>
        </filter>
    </defs>
    <g id="官网" stroke="none" stroke-width="1" fill="none" fill-rule="evenodd">
        <g id="云笔记官网_win" transform="translate(-604.000000, -1221.000000)">
            <g id="文档管理_图" transform="translate(321.000000, 770.000000)">
                <g id="Group-11" transform="translate(115.000000, 223.000000)">
                    <g id="Group-49">
                        <g id="Group-27" transform="translate(168.000000, 228.000000)">
                            <g id="ppt-icon" transform="translate(12.000000, 8.000000)">
                                <g id="Oval-14">
                                    <use fill="black" fill-opacity="1" filter="url(#filter-3)" xlink:href="#path-2"></use>
                                    <use fill="url(#linearGradient-1)" fill-rule="evenodd" xlink:href="#path-2"></use>
                                </g>
                                <path d="M34.1,32.8 L30.8,32.8 L30.8,26.4 L34.1,26.4 L47.9374475,26.4 C53.053014,26.4 57.2,30.4046711 57.2,35.3818691 L57.2,39.8181309 C57.2,44.7786802 53.0701829,48.8 47.9374475,48.8 L40.7,48.8 L40.7,61.6 L34.1,61.6 L34.1,32.8 Z M40.7,42.4 L47.283891,42.4 C49.1224084,42.4 50.6,40.965347 50.6,39.1843792 L50.6,36.0156208 C50.6,34.2328161 49.1205141,32.8 47.283891,32.8 L40.7,32.8 L40.7,42.4 Z" id="Combined-Shape" fill="#FFFFFF"></path>
                            </g>
                        </g>
                    </g>
                </g>
            </g>
        </g>
    </g>
</svg>