<?xml version="1.0" encoding="UTF-8"?>
<svg width="201px" height="264px" viewBox="0 0 201 264" version="1.1" xmlns="http://www.w3.org/2000/svg" xmlns:xlink="http://www.w3.org/1999/xlink">
    <!-- Generator: sketchtool 50.2 (55047) - http://www.bohemiancoding.com/sketch -->
    <title>BF7EA169-F70D-4C2D-A068-BE0669F7D104</title>
    <desc>Created with sketchtool.</desc>
    <defs>
        <linearGradient x1="50%" y1="0%" x2="50%" y2="100%" id="linearGradient-1">
            <stop stop-color="#227BFF" stop-opacity="0.592391304" offset="0%"></stop>
            <stop stop-color="#248AFF" stop-opacity="0" offset="100%"></stop>
        </linearGradient>
        <ellipse id="path-2" cx="81.0386152" cy="81.463026" rx="81.0386152" ry="81.463026"></ellipse>
        <filter x="-24.7%" y="-12.3%" width="149.4%" height="149.1%" filterUnits="objectBoundingBox" id="filter-3">
            <feOffset dx="0" dy="20" in="SourceAlpha" result="shadowOffsetOuter1"></feOffset>
            <feGaussianBlur stdDeviation="10" in="shadowOffsetOuter1" result="shadowBlurOuter1"></feGaussianBlur>
            <feColorMatrix values="0 0 0 0 0.115032257   0 0 0 0 0.230175105   0 0 0 0 0.344892645  0 0 0 0.132104846 0" type="matrix" in="shadowBlurOuter1"></feColorMatrix>
        </filter>
        <path d="M12.7119396,0.000159731423 C5.69129427,0.000159731423 0,5.7211004 0,12.7785139 L0,68.6845121 C0,75.7419256 5.69129427,81.463026 12.7119396,81.463026 L68.3265166,81.463026 C75.347162,81.463026 81.0384563,75.7419256 81.0384563,68.6845121 L81.0384563,12.7785139 C81.0384563,5.7211004 75.347162,0.000159731423 68.3265166,0.000159731423 L12.7119396,0.000159731423 Z" id="path-4"></path>
        <linearGradient x1="18.7188789%" y1="-4.18075345%" x2="81.2813172%" y2="104.180569%" id="linearGradient-6">
            <stop stop-color="#3BA1FF" offset="0%"></stop>
            <stop stop-color="#387CFF" offset="100%"></stop>
        </linearGradient>
    </defs>
    <g id="官网" stroke="none" stroke-width="1" fill="none" fill-rule="evenodd">
        <g id="云笔记官网_mac" transform="translate(-1414.000000, -1864.000000)">
            <g id="Group-32" transform="translate(0.000000, 1552.000000)">
                <g id="Group-16">
                    <g id="手机" transform="translate(935.000000, 167.000000)">
                        <g id="Group-69" transform="translate(479.000000, 145.000000)">
                            <g id="Group-19" transform="translate(19.620506, 0.077230)">
                                <g id="Group-57" transform="translate(0.000000, 82.000000)" fill="url(#linearGradient-1)">
                                    <polygon id="Path-2" points="0.154884633 0.0340977655 15.4359838 175.239853 62.1825629 182.064072 153.916603 34.616129"></polygon>
                                </g>
                                <g id="Group-56">
                                    <g id="Group-55">
                                        <g id="Oval-4">
                                            <use fill="black" fill-opacity="1" filter="url(#filter-3)" xlink:href="#path-2"></use>
                                            <use fill="#FFFFFF" fill-rule="evenodd" xlink:href="#path-2"></use>
                                        </g>
                                        <g id="Group" transform="translate(40.000000, 41.000000)">
                                            <g id="Group-3">
                                                <mask id="mask-5" fill="white">
                                                    <use xlink:href="#path-4"></use>
                                                </mask>
                                                <g id="Clip-2"></g>
                                                <path d="M12.7119396,0.000159731423 C5.69129427,0.000159731423 0,5.7211004 0,12.7785139 L0,68.6845121 C0,75.7419256 5.69129427,81.463026 12.7119396,81.463026 L68.3265166,81.463026 C75.347162,81.463026 81.0384563,75.7419256 81.0384563,68.6845121 L81.0384563,12.7785139 C81.0384563,5.7211004 75.347162,0.000159731423 68.3265166,0.000159731423 L12.7119396,0.000159731423 Z" id="Fill-1" fill="url(#linearGradient-6)" mask="url(#mask-5)"></path>
                                            </g>
                                            <g id="Group-8" transform="translate(21.928096, 17.730188)">
                                                <path d="M42.1222196,20.8790694 C43.283932,19.6853965 43.2774171,17.7724529 42.0999737,16.5886834 C42.0828126,16.5712726 42.0637447,16.5565773 42.0462658,16.5398055 C42.0467425,16.5388472 42.0473781,16.5375693 42.0483315,16.5366109 L26.5300723,0.9372401 C26.5284833,0.938837415 26.5267354,0.939955535 26.5253053,0.941393117 C25.3941016,-0.104368512 23.6684557,-0.131363123 22.5080146,0.863284451 C22.5046777,0.86088848 22.5013408,0.85865224 22.497845,0.855777074 L2.60175269,20.8562278 L2.60175269,20.8575057 C2.5982569,20.8605406 2.59444332,20.8637352 2.59110644,20.8672493 C2.06022406,21.4005925 1.76880284,22.0832846 1.713347,22.7808317 C1.71001012,22.7817901 1.70651434,22.7835472 1.70317745,22.7846653 L0.0526909898,40.1075382 C0.0507841988,40.1238308 0.0495130049,40.1402831 0.0480829117,40.1567354 L0.0401379494,40.2401152 C0.0415680426,40.2401152 0.0428392366,40.2401152 0.0439515313,40.2399555 C-0.00228814913,41.0382932 0.274673236,41.851965 0.881509454,42.4618196 C1.5253692,43.1093708 2.39852055,43.385227 3.23862086,43.2929022 L3.23862086,43.2932217 L20.3115503,41.6400014 C20.3099613,41.6376055 20.3077367,41.6353692 20.3063066,41.6329733 C21.0531331,41.6109303 21.7936036,41.3165453 22.363734,40.743429 C22.4323785,40.6745847 22.4960971,40.6023861 22.5567966,40.5289097 C22.5612458,40.5313056 22.5660128,40.5330627 22.5701442,40.5360976 L42.1234908,20.8801875 C42.123173,20.8798681 42.1226963,20.8792291 42.1222196,20.8790694" id="Fill-4" fill="#FFFFFF"></path>
                                                <path d="M42.123459,20.8802354 C42.1231412,20.879916 42.1226645,20.879277 42.1221878,20.8791173 C43.2839002,19.6854444 43.2773854,17.7723411 42.1001008,16.5887313 C42.0827808,16.5711608 42.0637129,16.5566253 42.0463929,16.5398535 C42.0468696,16.5387353 42.0473463,16.5376172 42.0482997,16.5366588 L34.3599597,8.80805391 L0.881477674,42.462187 C1.52581411,43.1094187 2.39848877,43.3852749 3.23858908,43.2927904 L3.23858908,43.2931099 L20.3115185,41.6400494 C20.3099295,41.6376534 20.3077049,41.6354171 20.3062748,41.6328614 C21.0531013,41.6109782 21.7937307,41.3164335 22.3637023,40.7434769 C22.4323467,40.6744729 22.4960653,40.602434 22.5567648,40.5287978 C22.5613729,40.5313535 22.565981,40.5331106 22.5701124,40.5359858 L42.123459,20.8802354 Z" id="Fill-6" fill="#ECF6FF"></path>
                                            </g>
                                        </g>
                                    </g>
                                </g>
                            </g>
                        </g>
                    </g>
                </g>
            </g>
        </g>
    </g>
</svg>