<?xml version="1.0" encoding="UTF-8"?>
<svg width="136px" height="136px" viewBox="0 0 136 136" version="1.1" xmlns="http://www.w3.org/2000/svg" xmlns:xlink="http://www.w3.org/1999/xlink">
    <!-- Generator: sketchtool 50.2 (55047) - http://www.bohemiancoding.com/sketch -->
    <title>1EF28B43-6A96-4CD8-BCA0-9A9A00A2E7D2</title>
    <desc>Created with sketchtool.</desc>
    <defs>
        <linearGradient x1="0%" y1="0%" x2="100%" y2="100%" id="linearGradient-1">
            <stop stop-color="#FF7968" offset="0%"></stop>
            <stop stop-color="#FF455E" offset="100%"></stop>
        </linearGradient>
        <circle id="path-2" cx="56" cy="52" r="44"></circle>
        <filter x="-38.1%" y="-33.5%" width="203.4%" height="203.4%" filterUnits="objectBoundingBox" id="filter-3">
            <feOffset dx="12" dy="16" in="SourceAlpha" result="shadowOffsetOuter1"></feOffset>
            <feGaussianBlur stdDeviation="12.5" in="shadowOffsetOuter1" result="shadowBlurOuter1"></feGaussianBlur>
            <feColorMatrix values="0 0 0 0 0.996078431   0 0 0 0 0.411764706   0 0 0 0 0.364705882  0 0 0 0.198794158 0" type="matrix" in="shadowBlurOuter1"></feColorMatrix>
        </filter>
    </defs>
    <g id="官网" stroke="none" stroke-width="1" fill="none" fill-rule="evenodd">
        <g id="云笔记官网_win" transform="translate(-455.000000, -1285.000000)">
            <g id="文档管理_图" transform="translate(321.000000, 770.000000)">
                <g id="Group-11" transform="translate(115.000000, 223.000000)">
                    <g id="Group-49">
                        <g id="Group-26" transform="translate(19.000000, 292.000000)">
                            <g id="pdf-icon">
                                <g id="Oval-17">
                                    <use fill="black" fill-opacity="1" filter="url(#filter-3)" xlink:href="#path-2"></use>
                                    <use fill="url(#linearGradient-1)" fill-rule="evenodd" xlink:href="#path-2"></use>
                                </g>
                                <path d="M73.6728772,56.4107799 C72.7792646,54.8505367 71.3105709,53.8968468 69.537898,53.7219413 C67.5835921,53.536873 64.8504743,53.7347784 61.0216302,54.3151225 C60.4885887,53.8278474 59.9657876,53.350735 59.4640064,52.898227 C56.8386826,50.5404788 54.5254226,47.1343669 53.9595039,46.2812343 C54.6795681,39.5529867 54.3481014,37.5027941 53.9233929,36.3955938 C52.9128238,33.7682663 50.9590569,32.2 48.6969991,32.2 C46.9577423,32.2 45.3322083,33.1750851 44.4536869,34.7487002 C43.439884,36.5598018 43.548756,38.8330391 44.7533543,40.9784402 C45.390956,42.1150589 46.2425289,43.0387956 47.3204693,44.207507 C48.0895797,45.0419188 49.023615,46.0507013 50.125809,47.4098298 C49.9770533,48.6732149 49.8175181,49.8889957 49.6779248,50.9566149 C49.3292111,53.5999888 48.8603071,55.6287862 48.3660714,57.7768618 L48.318642,57.9806508 C47.9241159,58.1534169 47.5198882,58.3229736 47.1097319,58.4952048 C44.9182792,59.4141275 42.4320097,60.4576772 40.4901002,62.2746624 C36.8763051,65.6492164 37.4066518,68.4760539 37.8017169,69.535115 C38.4258444,71.2039387 39.9613704,72.24 41.8068043,72.24 C43.657089,72.24 45.5418677,71.1777296 46.9776842,69.3206284 C48.1192231,67.8475706 50.1387443,64.8522461 51.3940059,60.759884 C53.6738497,59.8484496 57.2995021,58.7942024 59.0096545,58.4952048 L59.8709289,58.3491827 L60.4443931,58.8792482 C62.2612616,60.5609089 64.043097,62.2088723 65.3549504,63.3182121 C66.4221114,64.2189489 67.7733096,64.7147821 69.1638527,64.7147821 L69.1654696,64.7147821 C71.3515326,64.7147821 73.27889,63.4909781 74.0760269,61.5991098 C74.7357264,60.0281691 74.5778081,57.9945577 73.6728772,56.4107799 L73.6728772,56.4107799 Z M44.1022783,66.9532523 C43.3784414,67.8850122 42.5204009,68.4439611 41.8068043,68.4439611 C41.6672111,68.4439611 41.3298157,68.4172171 41.2371129,68.1679633 C41.072727,67.7315018 41.397187,66.5499532 42.9607395,65.0881279 C43.9691527,64.1451356 45.2680708,63.4401646 46.6338213,62.8154255 C45.7326631,64.6987357 44.7522764,66.1134917 44.1022783,66.9532523 L44.1022783,66.9532523 Z M50.614655,42.2707088 C50.3942162,42.0300131 50.1861737,41.8048289 49.9872937,41.5903422 C49.042479,40.5649785 48.3579869,39.8236357 47.939746,39.0764092 C47.4120942,38.1355564 47.3037612,37.2514008 47.6416955,36.6448476 C47.8648291,36.2447578 48.2695958,35.9960389 48.6969991,35.9960389 C49.404128,35.9960389 50.0622106,36.6528708 50.5003933,37.7948382 C50.596869,38.0435571 50.8205416,39.0025958 50.614655,42.2707088 L50.614655,42.2707088 Z M52.512369,56.3412456 L52.5932145,56.0048064 L52.5328499,56.0347597 C52.8114974,54.7178867 53.0745149,53.3031307 53.2944147,51.6926089 C54.1837155,52.8131812 55.2595,54.0610548 56.4301432,55.1891154 C55.2341684,55.496671 53.8355408,55.9042491 52.512369,56.3412456 L52.512369,56.3412456 Z M70.6993787,60.0870058 C70.4864855,60.5903273 69.8839168,60.9187432 69.1654696,60.9187432 C68.6227266,60.9187432 68.0972307,60.7256518 67.6865354,60.3779802 C66.8344236,59.6607069 65.7801979,58.707017 64.6478215,57.6656069 C66.5762568,57.4570039 68.0616587,57.3874696 69.1908012,57.5046082 C69.7842073,57.5597008 70.2126886,57.8356985 70.5015767,58.3411595 C70.8508293,58.9503871 70.8643036,59.6949392 70.6993787,60.0870058 L70.6993787,60.0870058 Z" id="Imported-Layers-Copy-5" fill="#FFFFFF"></path>
                            </g>
                        </g>
                    </g>
                </g>
            </g>
        </g>
    </g>
</svg>