<?xml version="1.0" encoding="UTF-8"?>
<svg width="212px" height="80px" viewBox="0 0 212 80" version="1.1" xmlns="http://www.w3.org/2000/svg" xmlns:xlink="http://www.w3.org/1999/xlink">
    <!-- Generator: sketchtool 50.2 (55047) - http://www.bohemiancoding.com/sketch -->
    <title>6D77A5EA-27C7-4C0F-957D-FA20F738F1D8</title>
    <desc>Created with sketchtool.</desc>
    <defs>
        <polygon id="path-1" points="5.76497039 6.76028578 0.0169384466 6.76028578 0.0169384466 0.0329076146 5.76497039 0.0329076146 5.76497039 6.76028578"></polygon>
    </defs>
    <g id="官网" stroke="none" stroke-width="1" fill="none" fill-rule="evenodd">
        <g id="云笔记官网_mac" transform="translate(-458.000000, -4572.000000)">
            <g id="认证信息" transform="translate(0.000000, 4552.000000)">
                <g id="Group-31" transform="translate(458.000000, 20.000000)">
                    <g id="Group-22">
                        <rect id="Rectangle-6-Copy-4" opacity="0.5" x="0" y="0" width="80" height="80"></rect>
                        <g id="资源-5" transform="translate(4.000000, 16.000000)">
                            <path d="M70.7878788,28.5429539 C70.3157893,29.4869081 69.67574,30.0961329 68.9291008,30.6000341 C68.6042311,30.8191141 68.2657615,31.0263193 67.9113118,31.1891235 C67.5634922,31.3490019 67.4897123,31.5360718 67.6391421,31.8976484 C68.3856113,33.7048432 69.1133806,35.5199544 69.8435298,37.3340331 C69.9315897,37.553113 69.9941496,37.7828631 70.0910495,38.0759449 C69.8591698,38.0996944 69.7010699,38.1301556 69.5428001,38.1301556 C68.0886216,38.1306719 66.6339332,38.1034805 65.1804347,38.1346301 C64.6643153,38.1456444 64.3901056,37.9573698 64.2219757,37.4832415 C63.6878363,35.9767009 63.1244569,34.4806582 62.5932075,32.9730851 C62.2975778,32.1344544 62.3161078,32.1399616 61.4661087,32.1349707 C59.8608004,32.1255054 60.15592,32.01347 59.8786503,33.6084686 C59.6466006,34.9437723 59.4764308,36.2902623 59.290451,37.6334825 C59.237921,38.0129573 59.0325612,38.1239601 58.6793016,38.1225833 C57.4303129,38.1175925 56.1808142,38.1136343 54.9323356,38.146677 C54.3876561,38.1611331 54.2451963,37.9348251 54.3225462,37.4300634 C54.6622059,35.2124164 54.9882655,32.99236 55.3226552,30.7738524 C55.4096951,30.1964657 55.5326049,29.6235534 55.5948249,29.0439294 C55.6419148,28.6055974 55.8542446,28.4911526 56.2598642,28.4932178 C58.8328114,28.5061251 61.4057587,28.5014784 63.978536,28.4994133 C66.0107138,28.4978644 68.0428917,28.4904642 70.0750695,28.4897758 C70.2737993,28.4897758 70.4725291,28.5185161 70.7878788,28.5429539" id="Fill-1" fill="#666666"></path>
                            <path d="M44.7164864,31.66587 C44.5338704,31.0139041 44.7882531,30.6706912 45.3257251,30.3967443 C45.7976559,30.1562182 46.253677,29.8834835 46.7086605,29.6114414 C46.8134572,29.5487557 46.8852239,29.4310035 47.0744113,29.2299591 C46.7890738,29.2027722 46.6216759,29.1741999 46.4542779,29.1729878 C45.8853323,29.169005 45.3139657,29.2041575 44.7491705,29.1568835 C44.5950883,29.1438961 44.4610662,28.8933264 44.3178787,28.7516775 C44.4608932,28.6676925 44.6028702,28.5128831 44.7470953,28.5108051 C46.0553243,28.491757 47.3642449,28.5166927 48.672128,28.4900253 C49.1414649,28.4803281 49.2384796,28.7544482 49.3214869,29.1064925 C49.8608611,31.3948669 50.4031752,33.6823756 50.9463539,35.969711 C51.0734587,36.5047906 51.1931275,37.0422946 51.3442699,37.5704476 C51.4511418,37.9437911 51.4127509,38.1477794 50.9560381,38.1434503 C49.4195392,38.1294239 47.8830403,38.1304629 46.3465414,38.135831 C45.9854598,38.1372164 45.8054378,38.0220617 45.7556335,37.6263798 C45.665709,36.912594 45.5040177,36.207986 45.3833114,35.4978366 C45.3243416,35.1511604 45.1284099,35.0311571 44.7898095,35.0335814 C43.1775665,35.044664 41.5648047,35.0273475 39.9534263,35.0637121 C39.7319007,35.0687339 39.4254656,35.2659688 39.3137517,35.4626841 C38.9403919,36.1200182 38.6266937,36.8125047 38.3119578,37.5017011 C38.1104923,37.9427521 37.8415834,38.1619789 37.3112016,38.1465673 C35.984469,38.1079515 34.6558341,38.1413723 33.3278909,38.1387748 C33.0902827,38.1384285 32.8526744,38.1041419 32.4848485,38.0752233 C32.8025242,37.4722631 33.0658993,36.9621192 33.3384398,36.4566508 C34.678834,33.970522 36.027529,31.4888955 37.3572015,28.9970522 C37.5520956,28.6318474 37.7831324,28.4846572 38.2054319,28.4931423 C39.4754429,28.5187707 40.7463185,28.4967788 42.0168483,28.4972983 C42.1641862,28.4972983 42.3115241,28.522234 42.4880875,28.5383384 C42.469065,29.020949 42.2143364,29.1977504 41.8001648,29.202599 C41.2694372,29.2086598 40.7381907,29.1986162 40.2081548,29.2178375 C40.0231178,29.2244178 39.8405019,29.2968007 39.6566754,29.339053 C39.6442243,29.3930804 39.6316003,29.4469347 39.6189763,29.500789 C39.9755616,29.766424 40.3281695,30.0377734 40.689424,30.296655 C41.4677899,30.854246 41.4721132,30.8800476 41.0126335,31.704659 C40.7637847,32.1512513 40.5327478,32.6075409 40.3003275,33.0627915 C40.2800945,33.1024462 40.3100117,33.1677294 40.3354326,33.3722372 C40.9190774,33.0522284 41.4696922,32.7964638 41.9705026,32.4650261 C42.8031692,31.9138422 42.8028233,31.8992963 43.5787682,32.5294435 C43.9346618,32.8184558 44.3113072,33.0821859 44.6786143,33.3575182 C44.7512457,33.3123221 44.82405,33.2671261 44.8966813,33.22193 C44.8422078,32.7017426 44.8555236,32.1623339 44.7164864,31.66587 Z" id="Fill-3" fill="#666666"></path>
                            <path d="M2.40069218,28.0670349 C2.69199415,28.0467894 2.92619142,28.0163376 3.16038869,28.0163376 C6.53415502,28.0166722 9.90826125,28.0491319 13.2813478,28.0071351 C14.2755814,27.9949209 14.8998242,28.4560488 15.3993205,29.1807024 C16.1906285,30.3283354 16.0777787,31.6039665 15.7548652,32.843457 C15.0804859,35.4333697 13.1686679,36.7011369 10.65963,37.2890918 C8.07326276,37.8952843 5.50729007,37.7416865 2.98431585,37.0123481 C2.04769673,36.7416278 1.17498049,36.2530597 0.279150442,35.850995 C-0.0527706519,35.7022494 -0.0833624578,35.484067 0.158992627,35.1989574 C0.983441795,34.228514 1.80823087,33.2579033 2.60378778,32.2648719 C2.85583027,31.9503144 3.05212769,32.0891882 3.31793649,32.1989487 C4.31030068,32.6087101 5.28108066,33.138773 6.31780297,33.3547803 C7.38919599,33.5781496 8.5282309,33.5266157 9.63718386,33.5200903 C10.2044919,33.5169113 10.6749259,33.0238256 10.7534449,32.5222068 C10.8440306,31.943789 10.4278121,31.673738 9.99680753,31.504747 C9.37834319,31.2623035 8.72520814,31.1048574 8.08583939,30.9147844 C6.80557232,30.5343036 5.51204879,30.192306 4.24843725,29.7648089 C3.36603361,29.4663139 2.6331899,28.7490223 2.40069218,28.0670349" id="Fill-5" fill="#666666"></path>
                            <path d="M30.5352291,8.2952224 C30.7431038,8.26924762 30.9509785,8.22081722 31.1588532,8.22048206 C34.6179489,8.212941 38.0770447,8.21076247 41.5359709,8.20891909 C42.644862,8.20824878 43.4182033,8.73277178 43.8285269,9.76841144 C44.3607607,11.1120617 44.1106667,12.4113035 43.5307879,13.6624501 C42.5198998,15.8436614 40.5550941,16.696137 38.3508764,17.1129065 C35.3349979,17.6831787 32.3920282,17.3371275 29.5424834,16.2187037 C29.1635275,16.070061 28.8069529,15.8664522 28.4369834,15.6943483 C28.0831217,15.5297855 28.0185212,15.3199763 28.2845533,15.0123008 C29.0812932,14.0912854 29.8805765,13.1719457 30.6557829,12.2333344 C30.9596258,11.865498 31.2424439,12.0650848 31.5456086,12.1818876 C32.528181,12.5607842 33.481929,13.0878209 34.5004472,13.2795316 C35.5928914,13.4853189 36.7460363,13.3856092 37.8729002,13.3933179 C38.041099,13.3944909 38.2242186,13.2746718 38.3766488,13.1752973 C39.0051899,12.7662364 39.0348621,11.9249886 38.3569804,11.6362496 C37.4795322,11.2623803 36.5430788,11.0056489 35.6123902,10.776233 C34.1874483,10.4251545 32.7375817,10.1526706 31.4913509,9.32717532 C31.1191772,9.08066627 30.808213,8.74399959 30.4691026,8.4485574 L30.5352291,8.2952224 Z" id="Fill-7" fill="#666666"></path>
                            <path d="M44.1212121,17.3115298 C44.4379928,16.6414277 44.7033899,16.050768 44.9928678,15.4726609 C46.1027873,13.2563544 47.2317001,11.0496773 48.3256788,8.82528896 C48.5364702,8.3966093 48.7898269,8.19834711 49.2633021,8.20935212 C50.2299242,8.2315341 51.1973941,8.21330705 52.1643553,8.21984127 C52.3241023,8.22087299 52.4835102,8.26334547 52.7487377,8.30203497 C52.5567699,8.78023718 52.3944792,9.19000198 52.2279489,9.59787528 C52.1356958,9.82382196 52.0280107,10.0432344 51.9423714,10.2714165 C51.8365517,10.553076 51.9318573,10.707834 52.2408372,10.7069743 C52.8350553,10.7054267 53.4294431,10.7002681 54.0236613,10.7068023 C54.3653706,10.7105853 54.4942536,10.5444784 54.4538929,10.2136402 C54.396913,9.74609905 54.3628269,9.27460302 54.2809184,8.8118766 C54.2079978,8.39987641 54.3192441,8.21021189 54.7545632,8.21519853 C55.813947,8.22757917 56.87367,8.23222191 57.9328842,8.21175947 C58.3359826,8.20402157 58.4852155,8.3862921 58.5538965,8.75943083 C58.9452936,10.8897607 59.3502574,13.0175112 59.7533557,15.1456056 C59.8584971,15.7003271 59.9593988,16.2565961 60.0882818,16.8058151 C60.1793477,17.1937418 60.0948955,17.3694781 59.665851,17.3653512 C58.4580822,17.3534864 57.2494655,17.3515949 56.0422055,17.3830624 C55.5524503,17.395787 55.3854112,17.1792977 55.3447114,16.724997 C55.290784,16.1252238 55.179029,15.5309531 55.12171,14.9313518 C55.0867759,14.565951 54.9319468,14.3773182 54.5648,14.3776621 C53.2072896,14.3793816 51.84944,14.3627021 50.4927775,14.3981245 C50.297079,14.4032831 50.0281206,14.6134101 49.9297626,14.8018709 C49.5922928,15.4492752 49.3111245,16.1271153 49.0174071,16.7973894 C48.8386668,17.2054346 48.5590247,17.3875332 48.1021686,17.3779038 C46.9868225,17.3546901 45.8706284,17.3739489 44.7547735,17.3701659 C44.5777291,17.3694781 44.4006846,17.3383545 44.1212121,17.3115298" id="Fill-9" fill="#666666"></path>
                            <path d="M27.6363636,13.1306419 C27.1007253,14.0430492 26.3817419,14.7477879 25.5526126,15.3204193 C22.2208313,17.6207865 18.6359748,18.0194434 14.8887615,16.4061339 C13.3368328,15.7379249 12.41473,14.4587199 11.9453527,12.8902802 C11.5425832,11.5445212 11.5861212,10.1817483 11.778833,8.81297066 C11.8393698,8.38262136 12.0489071,8.1998063 12.5361506,8.20998123 C13.942895,8.23917159 15.3508537,8.23066468 16.7577715,8.20914722 C17.2663504,8.20130752 17.3929747,8.3946311 17.2852573,8.84082661 C17.0535174,9.80260727 17.0823114,10.7605515 17.3430188,11.7183289 C17.6052873,12.6817776 18.4267844,13.3331396 19.4555638,13.4395593 C21.0643868,13.6060278 22.1686205,12.8167204 23.1292309,11.7255014 C23.6643488,11.1178415 23.6577574,11.1206771 24.3909644,11.4796352 C25.2861812,11.9181578 26.1890301,12.3423354 27.0842468,12.7811916 C27.265337,12.8699303 27.4264795,12.9963663 27.6363636,13.1306419" id="Fill-11" fill="#666666"></path>
                            <path d="M19.3939394,24.2558353 C19.478627,23.7006387 19.5479935,23.2461186 19.6171915,22.7915986 C19.7146749,22.1514664 19.8313519,21.5133018 19.9029071,20.8703822 C19.9505544,20.441933 20.1665668,20.2697663 20.5906785,20.2814081 C20.9780865,20.292066 21.3661681,20.286983 21.7539129,20.286983 C26.0376259,20.2873109 30.3215073,20.2866551 34.6053888,20.2879668 C35.4393011,20.2881308 35.4576529,20.2979689 35.3441748,21.10912 C35.214702,22.0342291 35.0428013,22.9537632 34.9166958,23.8792002 C34.8668597,24.2461612 34.6057255,24.2448495 34.354188,24.2478009 C33.4315473,24.2586228 32.5087383,24.2517361 31.5859292,24.2515722 C31.1796642,24.2515722 30.7730625,24.2620661 30.3673027,24.2487847 C29.9507674,24.2351753 29.5963589,24.2453414 29.5530891,24.7970947 C29.5439974,24.9117085 29.2372362,25.0902699 29.065167,25.0932214 C27.699221,25.1165049 26.3326016,25.1151931 24.966824,25.0881384 C24.8223667,25.0851869 24.5657783,24.8713723 24.5612324,24.7483961 C24.5455745,24.3279814 24.3438731,24.2456693 23.9621894,24.2496046 C22.4879847,24.2648536 21.0134432,24.2558353 19.3939394,24.2558353" id="Fill-13" fill="#666666"></path>
                            <path d="M61.1890031,20.3862367 C62.9483567,20.3862367 64.7114317,20.3181181 66.4658799,20.4075237 C67.9077346,20.4808822 69.2859879,20.8645402 70.3144342,21.9693377 C71.038068,22.7466423 71.2838464,23.6803247 71.272344,24.7014478 C71.268961,25.0104374 71.1015001,25.1014804 70.8139411,25.1009892 C69.3683651,25.0986967 67.92262,25.1134339 66.4773823,25.0893632 C66.3004489,25.0864158 66.065158,24.9249617 65.9628208,24.77104 C65.6025263,24.2285479 65.0727411,24.0259935 64.4558425,24.0102739 C63.4006701,23.9832557 62.344652,23.9906243 61.2889722,23.980472 C60.9232648,23.9770333 60.7997835,24.1745116 60.8131466,24.495291 C60.8325991,24.9622959 60.5880048,25.1131064 60.1245274,25.1067203 C58.8457356,25.0891995 57.5664363,25.0936206 56.2876445,25.109504 C55.8302566,25.1152351 55.7037306,24.9300379 55.7769736,24.5164143 C55.9926428,23.2978129 56.2108494,22.0790478 56.3877827,20.8548791 C56.4501999,20.4222609 56.6432028,20.2766903 57.0736955,20.2809477 C58.4453519,20.2948661 59.8171775,20.2861876 61.188834,20.2861876 C61.1890031,20.3195919 61.1890031,20.3528324 61.1890031,20.3862367" id="Fill-15" fill="#666666"></path>
                            <path d="M12.6060606,5.88000362 C12.8453764,5.36765002 12.973125,4.98426878 13.18638,4.65510306 C15.0935818,1.70928033 17.8112209,0.135177872 21.359226,0.0124352584 C22.6496574,-0.0320147415 23.9279953,0.0272519251 25.1748219,0.446327872 C27.1535629,1.11139416 28.1338207,2.58531575 28.6025729,4.48235419 C28.6325513,4.60324472 28.4630714,4.87196518 28.3319162,4.91692029 C26.9941326,5.3753951 25.6439148,5.79800684 24.2999993,6.23897105 C23.9087478,6.36743828 23.7590265,6.15815286 23.64269,5.84464567 C23.3480166,5.05094378 22.998326,4.31196253 22.0735963,4.03583374 C20.8318797,3.66508033 19.3617485,4.05839548 18.6182515,5.1198076 C18.1874831,5.73436252 17.6921591,5.91670855 16.9825581,5.89044264 C15.844914,5.84834983 14.7045447,5.87966688 13.5651973,5.88000362 C13.3078264,5.88000362 13.0504555,5.88000362 12.6060606,5.88000362" id="Fill-17" fill="#666666"></path>
                            <g id="Group-21" transform="translate(30.060606, 0.000000)" fill="#666666">
                                <path d="M5.73295078,6.18333429 C5.49903004,6.19902781 5.3404686,6.21890627 5.18207766,6.2187319 C3.72348292,6.21663943 2.26505867,6.21105951 0.806463936,6.20635145 C0.205976424,6.20443336 0.0636121212,6.06423791 0.185687379,5.44608757 C0.486442624,3.92311858 1.23611429,2.68333046 2.50648125,1.800134 C4.21723983,0.610565136 6.12321652,0.14690879 8.17581991,0.118137335 C10.4742788,0.085878432 12.6837387,0.404108155 14.740093,1.517825 C14.871716,1.58914333 15.0004406,1.66639033 15.1308702,1.74032425 C15.4418552,1.91626605 15.5059618,2.12847732 15.2580603,2.42438737 C14.4192192,3.42511086 13.5854929,4.43054242 12.7558585,5.43946142 C12.5175049,5.7294428 12.3018272,5.58977047 12.0699524,5.44015891 C10.4098312,4.37003518 8.60206034,3.96758356 6.658404,4.21257685 C5.45487153,4.36428088 5.12598442,4.99899661 5.73295078,6.18333429" id="Fill-19"></path>
                            </g>
                            <path d="M10.3577606,19.9346872 C12.4978338,19.9577879 14.5361527,20.3958378 16.4124815,21.4750162 C17.1181254,21.8808287 17.1205076,21.9689213 16.6056105,22.6091879 C15.9003069,23.4864945 15.1934718,24.3629391 14.5113097,25.2585193 C14.236505,25.6191648 14.0064518,25.703982 13.5967121,25.4329807 C11.9819157,24.3639734 10.2144878,23.8840321 8.278774,24.1327948 C7.70942638,24.2058893 7.25476505,24.4139673 7.0056542,24.998551 C6.94031365,25.1518082 6.67316608,25.3040309 6.49586177,25.3073064 C5.13528093,25.3331653 3.77384929,25.3186843 2.41292813,25.3242009 C1.9240651,25.3260972 1.86365912,25.1152609 2.00795284,24.6785901 C2.81824373,22.224235 4.66241272,20.9718018 6.99051016,20.3541187 C8.07934919,20.0651885 9.22008631,19.9770958 10.3373417,19.7979798 C10.344148,19.8434915 10.3509543,19.8891755 10.3577606,19.9346872" id="Fill-22" fill="#666666"></path>
                            <path d="M25.2537191,38.1411601 C24.5712736,38.1411601 23.888828,38.1359877 23.2065506,38.1434015 C22.8690276,38.1470222 22.7481113,38.0094361 22.7990677,37.6561607 C23.0716759,35.7690938 23.3301577,33.8799579 23.59503,31.9918565 C23.7285592,31.0392714 23.8794103,30.0891 23.9941042,29.1342735 C24.0494331,28.6746188 24.2340869,28.4844466 24.7061482,28.4934121 C25.9782079,28.5177224 27.2511085,28.5068604 28.5235046,28.4899639 C29.0135604,28.4834121 29.1491077,28.6468602 29.0697301,29.1692734 C28.6499706,31.9306497 28.2645183,34.6977156 27.8804115,37.4646091 C27.8151604,37.9342638 27.638747,38.1740911 27.133892,38.1449532 C26.5089616,38.1087464 25.8806677,38.1363325 25.2537191,38.1363325 C25.2537191,38.1378843 25.2537191,38.1396084 25.2537191,38.1411601" id="Fill-24" fill="#666666"></path>
                            <path d="M49.4545455,6.23278195 C49.5410338,6.00036929 49.5844476,5.84317948 49.6551645,5.69999668 C50.4230455,4.14625578 51.2039845,2.599259 51.9599945,1.03963862 C52.1458596,0.655915632 52.3725948,0.472441053 52.8135158,0.483335396 C53.9271806,0.51100357 55.0422021,0.500455079 56.1565452,0.485756361 C56.5649059,0.480395653 56.7373739,0.632743536 56.8097867,1.06108145 C57.06179,2.55101262 57.3621251,4.03247042 57.6410924,5.51773258 C57.770825,6.20909108 57.7153707,6.27463007 57.0316039,6.27497592 C54.728809,6.2761864 52.4260141,6.27843444 50.1232192,6.2768781 C49.9271789,6.27670518 49.7313082,6.25180382 49.4545455,6.23278195" id="Fill-26" fill="#666666"></path>
                            <path d="M39.2727273,25.1095602 C39.6955856,24.3316072 40.0294487,23.6960526 40.3838625,23.0709732 C40.7955747,22.3445783 41.2374164,21.6330779 41.6428588,20.9035731 C41.8882491,20.4623021 42.2062636,20.2631081 42.77141,20.2820946 C44.066109,20.3253051 45.3637686,20.307137 46.6596867,20.2858591 C47.1165061,20.2784937 47.3420422,20.4110714 47.4484534,20.8547976 C47.7535802,22.1285257 48.0987636,23.39407 48.4531774,24.6566681 C48.5712573,25.077316 48.3448504,25.1093965 48.0113357,25.1089055 C46.1049899,25.1064503 44.1986441,25.1089055 42.2924724,25.1095602 C41.3450467,25.1097238 40.3976211,25.1095602 39.2727273,25.1095602" id="Fill-28" fill="#666666"></path>
                            <path d="M65.3230645,42.4751305 C65.1725586,43.3791765 65.0215396,44.2832225 64.8718888,45.1874337 C64.77406,45.7778986 64.6947023,46.3718348 64.5689957,46.956514 C64.5392366,47.094212 64.355722,47.2009982 64.2430136,47.3220005 C64.158012,47.1702517 63.9818517,47.0062704 64.0015201,46.8685724 C64.2609717,45.0578356 64.541289,43.2495784 64.8404194,41.4446272 C64.8655607,41.2935396 65.0637839,41.0584778 65.1823072,41.0579819 C65.3665059,41.0573206 65.640153,41.1789842 65.7222471,41.3277575 C66.4344137,42.6201019 67.1110061,43.930795 67.8012808,45.23438 C67.947511,45.5106025 68.1067394,45.7802128 68.2599818,46.0527986 C68.3160794,46.0407315 68.3721771,46.028499 68.4282747,46.0164318 C68.5276428,45.4920885 68.6374437,44.9692328 68.7243267,44.4429058 C68.8895411,43.441496 69.0297852,42.4357883 69.2122736,41.4373539 C69.2391252,41.2910601 69.4416241,41.1748516 69.5628839,41.0445923 C69.6523323,41.1920432 69.8343076,41.3505694 69.8170337,41.4851266 C69.6692642,42.6334915 69.4852366,43.7773931 69.3123258,44.9226172 C69.220312,45.5319267 69.1536105,46.1463605 69.0234571,46.7477354 C68.9786474,46.9550263 68.7756355,47.1300829 68.644798,47.3200168 C68.435629,47.1839719 68.1397481,47.094212 68.0311444,46.9044433 C67.2428698,45.52829 66.4937609,44.1313084 65.727378,42.7434184 C65.6695701,42.6387812 65.5734515,42.5536498 65.4952911,42.4594267 C65.4378252,42.4647164 65.3805303,42.4698408 65.3230645,42.4751305" id="Fill-30" fill="#666666"></path>
                            <path d="M14.7717371,44.0801679 C14.7747467,44.0988705 14.7775792,44.117573 14.7805887,44.1362756 C15.2939819,44.066387 15.8220688,44.0445674 16.3172276,43.9149618 C16.9619786,43.7459824 17.3233012,43.1087824 17.228412,42.4643639 C17.1452069,41.8990212 16.8307978,41.6716373 16.0178663,41.6296385 C15.476502,41.6015847 14.9321282,41.6215997 14.3914721,41.5891163 C13.8695814,41.5576172 13.6518319,41.7595722 13.6382004,42.239933 C13.6291718,42.5601736 13.5250769,42.877133 13.4795796,43.1975376 C13.3607911,44.0335755 13.3742455,44.046372 14.2491383,44.0791835 C14.4229838,44.0857459 14.5975375,44.0801679 14.7717371,44.0801679 M16.997208,47.2310594 C16.4730159,47.412015 16.1895875,47.3365485 16.0276031,46.8811244 C15.8096765,46.2686972 15.5437743,45.6698867 15.2736232,45.0748495 C15.0438355,44.5685676 14.7113692,44.4942494 13.7272476,44.5956371 C13.2193424,44.6478074 13.1901321,44.9498376 13.1432186,45.3114207 C13.0763005,45.8280383 12.9367991,46.3362889 12.8652782,46.8525784 C12.809513,47.2536994 12.5882229,47.3693601 12.1212121,47.2806049 C12.2107904,46.6311005 12.2865601,45.9796276 12.3926024,45.3324201 C12.5991989,44.0724572 12.8380152,42.8169239 13.0302721,41.5551563 C13.090109,41.1617461 13.288916,41.039195 13.6829896,41.0447729 C14.4975144,41.056421 15.3123933,41.0375544 16.1269181,41.0514993 C17.0499636,41.0670848 17.7646423,41.5044625 17.8949379,42.1063901 C18.0887881,43.0031293 17.6348777,43.906923 16.8024727,44.2822869 C16.6806746,44.3372463 16.5657807,44.4210797 16.4376095,44.4456884 C15.9585605,44.5373966 15.9845842,44.811537 16.1214301,45.1373555 C16.2690749,45.488767 16.4147723,45.8408348 16.561709,46.1924103 C16.7006792,46.5244631 16.8400035,46.8561877 16.997208,47.2310594" id="Fill-32" fill="#666666"></path>
                            <g id="Group-36" transform="translate(57.212121, 41.044592)">
                                <mask id="mask-2" fill="white">
                                    <use xlink:href="#path-1"></use>
                                </mask>
                                <g id="Clip-35"></g>
                            </g>
                            <path d="M45.3291674,42.0013948 C45.1548192,42.0859839 45.0600279,42.1005457 45.0329447,42.1497939 C44.5584806,43.0140098 44.083678,43.8783894 43.6408675,44.7578216 C43.6063364,44.8267037 43.8006584,45.111067 43.9017127,45.1181025 C44.4342364,45.1550796 44.9737002,45.1626059 45.5047005,45.1167936 C45.6445176,45.1048497 45.8901285,44.8474828 45.871678,44.7357336 C45.7254287,43.8453391 45.5272134,42.9626346 45.3291674,42.0013948 M41.6969697,47.1443143 C42.0031793,46.544337 42.2972015,45.9381423 42.6179683,45.3455278 C43.3211163,44.0465859 44.0562563,42.7636784 44.7363835,41.453938 C44.9120859,41.1155816 45.1160563,41.0313197 45.4674611,41.0462087 C45.8676156,41.0632247 45.8061705,41.3502059 45.858475,41.5809035 C46.2508431,43.3112988 46.6501512,45.0402216 47.0249152,46.7740529 C47.0579229,46.9263787 46.9306318,47.1111004 46.8776502,47.2807694 C46.7044869,47.1387514 46.4190975,47.0229117 46.3762722,46.8506248 C46.0913906,45.7085901 46.1083176,45.7046633 44.8941432,45.7048269 C44.8384534,45.7048269 44.7817479,45.7121896 44.7275815,45.7038452 C43.6234326,45.5343398 42.77759,45.773709 42.4414196,46.9528844 C42.3955474,47.1137182 42.0729186,47.2007616 41.8784272,47.3220005 C41.8179978,47.2627718 41.7573991,47.203543 41.6969697,47.1443143" id="Fill-37" fill="#666666"></path>
                            <path d="M59.783076,47.3116476 C60.1986604,47.1150923 60.6692682,46.989351 61.0193565,46.7084611 C62.0475124,45.8831992 62.379315,44.7410489 62.2410085,43.4501724 C62.1676994,42.7655244 61.9477721,42.1190721 61.2595643,41.8385202 C60.3861721,41.4824222 59.5573306,41.6514293 58.9120111,42.3445276 C58.0027124,43.3210509 57.6815487,44.4968336 57.9942345,45.8211736 C58.2020267,46.7006868 58.840863,47.1967227 59.783076,47.3116476 M62.9770916,43.6049829 C62.8712007,45.3912194 62.3272838,46.6905463 60.871076,47.4556417 C59.115315,48.3780827 57.3278033,47.3998693 57.2362085,45.3853042 C57.1637306,43.7895387 57.6325098,42.3823852 59.0940371,41.5172376 C60.4835851,40.6946799 62.0461825,41.052299 62.6662345,42.3708927 C62.8718656,42.8082832 62.9105981,43.3266281 62.9770916,43.6049829" id="Fill-34" fill="#666666"></path>
                            <path d="M8.33656219,47.8027944 C7.81324853,47.8027944 7.2897701,47.7971697 6.76645644,47.8047279 C6.43197069,47.8096495 6.25780742,47.6946948 6.31317058,47.2930564 C6.58042964,45.3534152 6.8384615,43.4125436 7.0956695,41.4714963 C7.13966344,41.1396392 7.29998592,41.038219 7.61222754,41.0448983 C8.65836055,41.0675728 9.70531742,41.048941 10.7512857,41.0719671 C10.8862334,41.0749552 11.0182152,41.2298102 11.1515152,41.3145321 C11.0228288,41.4203467 10.897273,41.6128168 10.7651264,41.6180899 C9.97208216,41.6495531 9.17722539,41.6558809 8.38368679,41.6339094 C7.93649747,41.6216054 7.70812444,41.8149543 7.65935213,42.2800463 C7.63513075,42.5094284 7.59986969,42.7374044 7.56691543,42.9655561 C7.43097911,43.9045287 7.43064957,43.9029468 8.35485181,43.8913459 C8.5891566,43.8883577 8.83005225,43.8656832 9.05512985,43.9164812 C9.16849251,43.9419681 9.2535145,44.1114121 9.35122388,44.2156447 C9.25483267,44.3015971 9.16371414,44.4527608 9.06139116,44.4619009 C8.68472396,44.4952976 8.3037727,44.4975826 7.92562256,44.4814116 C7.53972817,44.4650648 7.31151991,44.6065611 7.26011127,45.0431781 C7.19288457,45.6144362 7.09171499,46.1809486 7.02069856,46.7518552 C6.96154566,47.2273177 7.28960533,47.2229235 7.58471073,47.2260873 C8.36012449,47.2343486 9.13603256,47.2192322 9.91078723,47.2459495 C10.0747347,47.25175 10.2343981,47.3965859 10.3960387,47.4774409 C10.2325856,47.5778066 10.0740756,47.7523479 9.90502024,47.764652 C9.38434292,47.8026187 8.85971108,47.7785379 8.33656219,47.7785379 C8.33656219,47.7866234 8.33656219,47.7947089 8.33656219,47.8027944" id="Fill-39" fill="#666666"></path>
                            <path d="M0.627951446,45.0239077 C0.795777197,45.5076084 0.870907481,46.0520704 1.15003736,46.4628918 C1.78586217,47.3985472 2.90777297,47.4842274 3.97159693,46.7940066 C4.18933562,46.6528561 4.41437865,46.241352 4.70533459,46.6393725 C4.75211711,46.7035474 4.44585685,47.1283643 4.22516164,47.2454492 C3.78029296,47.4811552 3.29472872,47.7194213 2.80325144,47.7800119 C1.36203693,47.9578581 0.344125927,47.1710337 0.0649960504,45.7624303 C-0.252046793,44.1640332 0.622038414,42.2249633 2.00586173,41.4569135 C3.06742482,40.8677339 4.39368304,40.9092086 5.10446423,41.5862872 C5.23733353,41.7127594 5.25994218,41.9506842 5.33333333,42.137235 C5.11994246,42.1148762 4.847943,42.1674449 4.70255199,42.0578698 C3.76759734,41.3534828 2.34464366,41.5096529 1.63681899,42.4388226 C1.06377666,43.1911701 0.705168682,44.0210053 0.627951446,45.0239077" id="Fill-41" fill="#666666"></path>
                            <path d="M38.3696721,47.8022794 C36.9303092,47.8603468 36.1020735,46.9398324 35.9107822,45.5874949 C35.7168919,44.2163155 36.4065108,42.1663124 37.9181276,41.4146903 C38.9426795,40.905444 40.1290666,40.8927686 40.9618074,41.5584029 C41.108568,41.6755655 41.2617396,42.0253405 41.1967629,42.114754 C41.0210661,42.3559309 40.7885363,42.3115667 40.5386794,42.075186 C39.8435158,41.4172597 38.6808669,41.3984177 37.9389202,42.0537747 C36.7663948,43.0892249 36.3072265,44.3829811 36.7201314,45.9110624 C37.0680597,47.199166 38.6408413,47.6400674 39.8227233,46.8034852 C39.9149035,46.7382236 39.9873308,46.6130104 40.0841894,46.5946823 C40.2292173,46.5669332 40.3877603,46.6094133 40.5405854,46.6219175 C40.4955349,46.764431 40.4938022,46.951994 40.3981566,47.0415789 C39.8823286,47.524789 39.2244183,47.7567161 38.3696721,47.8022794" id="Fill-43" fill="#666666"></path>
                            <path d="M30.7336347,44.0514726 C30.5771397,44.165933 30.4332322,44.3517667 30.261598,44.3797239 C29.9353398,44.4330072 29.5920713,44.4137661 29.2581584,44.3922225 C28.8165702,44.3637719 28.6064926,44.5482899 28.5547812,44.9681425 C28.4775543,45.5942212 28.365116,46.2160241 28.2829561,46.8416094 C28.2467241,47.1169064 28.1786827,47.3851319 27.8364348,47.308825 C27.7323316,47.2856369 27.6170015,46.9713641 27.639115,46.807074 C27.8726668,45.0748736 28.1356466,43.3462912 28.3839974,41.6157354 C28.4414924,41.2159462 28.6144875,41.0292902 29.0773386,41.0455712 C30.0455668,41.0797778 31.0163465,41.0401442 31.985255,41.0641546 C32.1539975,41.068266 32.3183173,41.2360097 32.4848485,41.3281043 C32.3189977,41.4252969 32.1567192,41.5994544 31.9867859,41.6068548 C31.2053312,41.640568 30.4216652,41.6422126 29.63936,41.6257671 C29.26071,41.6177088 29.0907768,41.7903862 29.0331117,42.1168286 C28.9579261,42.542766 28.8846115,42.9691968 28.8186114,43.3966143 C28.7665598,43.7327595 28.9492508,43.8500157 29.2734677,43.8445887 C29.7313859,43.8366948 30.1896443,43.8426152 30.6475624,43.8426152 C30.6763099,43.9121795 30.7048873,43.9819083 30.7336347,44.0514726" id="Fill-45" fill="#666666"></path>
                            <path d="M50.9306066,41.065643 C51.5877348,41.065643 52.2455487,41.0501111 52.9014768,41.0775398 C53.0489149,41.0838186 53.1894955,41.2407901 53.3333333,41.3283637 C53.1922385,41.4146154 53.0574869,41.5608467 52.9088488,41.5755525 C52.537339,41.6122342 52.1593146,41.5952152 51.7840332,41.5886059 C51.364006,41.5813356 51.1443918,41.7292193 51.0837022,42.1722094 C50.879689,43.6604643 50.6341874,45.143597 50.4032582,46.6283821 C50.378228,46.7894844 50.391086,46.9803287 50.3031375,47.1009489 C50.2170747,47.2189253 50.0295198,47.3028638 49.8759098,47.3218656 C49.8210491,47.3284749 49.6588672,47.0905392 49.6749826,46.9818158 C49.902483,45.4418428 50.1392411,43.9030266 50.402401,42.3683411 C50.5153797,41.7090608 50.4821205,41.6358626 49.796019,41.6305751 C49.4767983,41.6280966 49.1544918,41.6527163 48.8400714,41.6157041 C48.7130347,41.6006679 48.602799,41.4531147 48.4848485,41.3658716 C48.605542,41.2601224 48.7222924,41.0684519 48.8476148,41.0629992 C49.5407453,41.033092 50.2359331,41.048624 50.9306066,41.048624 C50.9306066,41.0544071 50.9306066,41.060025 50.9306066,41.065643" id="Fill-47" fill="#666666"></path>
                            <path d="M23.2299506,41.5924491 C22.0943266,41.5845651 22.1025595,41.5857149 21.9305264,42.6753529 C21.7118404,44.0609704 21.4888663,45.4459309 21.2384493,46.8264566 C21.2056893,47.0064752 20.999181,47.1575857 20.8731149,47.3220005 C20.7937018,47.1142236 20.623727,46.8957704 20.6492833,46.7004765 C20.8424131,45.2210719 21.0705327,43.7457736 21.2945358,42.2701468 C21.3876704,41.6574923 21.3339851,41.5926134 20.6671212,41.5921206 C20.3669638,41.5919564 20.0638906,41.6131447 19.7681928,41.5778308 C19.6357805,41.5618985 19.5181188,41.4308266 19.3939394,41.3519864 C19.5186333,41.2545858 19.6381817,41.0814657 19.7692219,41.0730889 C20.3300873,41.0372823 20.8945547,41.0445094 21.4574784,41.0466446 C22.2454344,41.0499296 23.0335619,41.0519006 23.8206603,41.0811372 C23.9638782,41.0863932 24.1019506,41.2191077 24.2424242,41.2930204 C24.0925171,41.3928847 23.9554738,41.5328262 23.7892724,41.5812801 C23.6175824,41.6313765 23.4175918,41.5924491 23.2299506,41.5924491" id="Fill-49" fill="#666666"></path>
                            <path d="M55.7575758,41.360015 C55.5803143,42.5845489 55.4289777,43.6574817 55.2685675,44.7290933 C55.1616273,45.443336 55.0624646,46.1600557 54.9133965,46.8655458 C54.8769396,47.03812 54.6588464,47.1708948 54.524199,47.3220005 C54.4467484,47.1487657 54.2834216,46.9634755 54.3049716,46.8041127 C54.5371615,45.0848109 54.7980307,43.3694726 55.0529048,41.6534738 C55.0661913,41.5644618 55.0721864,41.454807 55.1253324,41.3956859 C55.2432907,41.2647276 55.3891182,41.1600271 55.5234416,41.0445923 C55.6248727,41.1811654 55.7263039,41.3179036 55.7575758,41.360015" id="Fill-51" fill="#666666"></path>
                            <path d="M32.969697,46.8427851 C33.2610921,44.9628244 33.5259245,43.2022969 33.8203418,41.4468762 C33.8459503,41.2948254 34.0672006,41.1778632 34.1974695,41.0445923 C34.2768397,41.2114693 34.4436921,41.3915251 34.4223783,41.5432464 C34.171543,43.3232127 33.9019388,45.1005432 33.60609,46.8730965 C33.5777776,47.0419503 33.3399852,47.1732444 33.1995365,47.3220005 C33.1106228,47.1365084 33.0217091,46.951181 32.969697,46.8427851" id="Fill-53" fill="#666666"></path>
                            <path d="M24.7272727,47.2325264 C24.9454713,45.7428079 25.1563166,44.2960174 25.3698794,42.8497241 C25.4384561,42.3844771 25.4812966,41.9107771 25.6027844,41.4604472 C25.6478628,41.2932102 25.8844444,41.1814979 26.0337465,41.0445923 C26.0855387,41.221111 26.201112,41.4069114 26.1790524,41.5729882 C25.9450284,43.3313799 25.6756771,45.0847991 25.4475677,46.8440195 C25.3837866,47.3361172 25.180774,47.4140175 24.7272727,47.2325264" id="Fill-55" fill="#666666"></path>
                            <path d="M42.6666667,27.9982135 C42.9146949,27.4337254 43.1068919,26.9959955 43.2992316,26.5582656 C43.3609174,26.5691399 43.4226031,26.5800141 43.4842889,26.5908884 C43.5391207,26.9771684 43.6082317,27.3621499 43.6362187,27.7508645 C43.6416448,27.8256859 43.4934276,27.969486 43.402184,27.9870146 C43.2094159,28.0238573 43.0075092,27.9982135 42.6666667,27.9982135" id="Fill-57" fill="#666666"></path>
                        </g>
                        <text id="CSA-STAR-2013-服务管理体系" font-family="PingFangSC-Medium, PingFang SC" font-size="14" font-weight="400" fill="#666666">
                            <tspan x="92" y="35">CSA STAR 2013</tspan>
                            <tspan x="92" y="55">服务管理体系认证</tspan>
                        </text>
                    </g>
                </g>
            </g>
        </g>
    </g>
</svg>