<?xml version="1.0" encoding="UTF-8"?>
<svg width="212px" height="80px" viewBox="0 0 212 80" version="1.1" xmlns="http://www.w3.org/2000/svg" xmlns:xlink="http://www.w3.org/1999/xlink">
    <!-- Generator: sketchtool 50.2 (55047) - http://www.bohemiancoding.com/sketch -->
    <title>84F30209-514F-43E2-A63C-60EB309905CC</title>
    <desc>Created with sketchtool.</desc>
    <defs></defs>
    <g id="官网" stroke="none" stroke-width="1" fill="none" fill-rule="evenodd">
        <g id="云笔记官网_mac" transform="translate(-862.000000, -4572.000000)">
            <g id="认证信息" transform="translate(0.000000, 4552.000000)">
                <g id="Group-37" transform="translate(862.000000, 20.000000)">
                    <g id="Group-35">
                        <rect id="Rectangle-6-Copy-3" opacity="0.5" x="0" y="0" width="80" height="80"></rect>
                        <g id="资源-4" transform="translate(8.000000, 16.000000)" fill="#666666">
                            <path d="M34.7991494,0 C34.9747733,0.0473566003 35.1483273,0.124920733 35.3263396,0.137349874 C38.5754618,0.364063698 41.7247506,1.04546382 44.7859886,2.13765491 C48.6406391,3.51304162 52.156302,5.46599006 55.2479517,8.13778336 C57.067562,9.71014836 58.6196762,11.5067099 59.8492029,13.5685313 C59.896174,13.6471967 59.9343877,13.7318408 59.96878,13.8166421 C59.9811995,13.847479 59.9706907,13.887441 59.9706907,13.9904928 C59.8128999,13.8647854 59.6939597,13.7719602 59.5770893,13.676775 C56.6000808,11.2483725 53.3148148,9.36638035 49.6115862,8.24476838 C45.8701438,7.11167125 42.0610314,6.88495742 38.2006488,7.5004359 C33.1287319,8.30895938 28.5569371,10.3086351 24.4182312,13.2733785 C23.692648,13.7930425 23.0113291,14.0043379 22.1344833,13.9999326 C16.218043,13.9706691 10.3012843,13.9868742 4.38468472,13.9868742 C4.28373679,13.9868742 4.18294808,13.9697251 4.02515723,13.955408 C4.10222158,13.827498 4.14075376,13.7338861 4.20460253,13.6621432 C6.76539992,10.7867637 9.60595364,8.22179806 12.8305553,6.08430048 C17.0608149,3.28003456 21.6760778,1.40512225 26.693381,0.525013206 C27.7487167,0.33983474 28.8250701,0.272025123 29.8905962,0.141125815 C30.0964726,0.115795541 30.2970947,0.0481432548 30.5001051,0 L34.7991494,0 Z" id="Fill-1"></path>
                            <path d="M27.3664139,48 C26.7537954,47.9028574 26.1418122,47.8022113 25.5285583,47.7092092 C22.1706719,47.1997679 18.9635178,46.1936254 15.8770768,44.782032 C15.5511516,44.6329739 15.4069314,44.4321594 15.4474337,44.0746428 C15.462364,43.9426244 15.412967,43.8031213 15.3927952,43.6669624 C15.3575343,43.6682364 15.3222734,43.6695104 15.2870125,43.6707844 C15.2353918,43.7817818 15.1837711,43.8926199 15.1064195,44.0591956 C14.9860242,43.9491537 14.8915186,43.8628401 14.7711232,43.7529575 C14.7472983,43.8846574 14.727603,43.9940622 14.7010779,44.1400946 C14.5871947,44.0840386 14.4887183,44.0354673 14.3767411,43.9803667 C14.4467864,43.8758986 14.5052369,43.7886295 14.5787766,43.6790654 C14.5036486,43.6449859 14.4444039,43.5951406 14.416767,43.6088361 C13.9626637,43.8362453 13.60116,43.5970516 13.234256,43.3822231 C10.0359966,41.5100783 7.21067687,39.2049322 4.99718148,36.2011557 C4.50479947,35.532942 4.07912728,34.8153608 3.62264151,34.1205524 C3.65599642,34.0858358 3.68935133,34.0511193 3.72270624,34.0164028 C3.86851485,34.1269224 4.01924728,34.2315497 4.1593379,34.3489171 C7.28834616,36.965238 10.7777463,38.9115934 14.7125139,40.012649 C18.2333629,40.9979297 21.8044032,41.1511284 25.4097513,40.5813313 C29.2585903,39.973155 32.847261,38.6243061 36.2011767,36.6625034 C37.4656454,35.9229457 38.6430738,35.034489 39.8711698,34.2305942 C40.057322,34.1087679 40.30256,34.0141733 40.5206376,34.0136955 C46.7279864,34.0003185 52.9353352,34.0004778 59.142684,34 C59.2549789,34 59.3672738,34.0192693 59.572327,34.0380608 C59.3520258,34.3016198 59.1928752,34.5037083 59.0218122,34.6951269 C55.6372418,38.4800255 51.7953914,41.6919419 47.2912079,44.0663618 C43.8686764,45.8705069 40.2560219,47.1117026 36.4276724,47.7012467 C35.8153715,47.7955228 35.204659,47.9001502 34.5933111,48 L27.3664139,48 Z" id="Fill-3"></path>
                            <path d="M63.1949686,27.0862365 C63.0711634,27.456605 62.9685228,27.8356639 62.8198929,28.19592 C62.1464435,29.8278168 60.8391688,30.7145523 59.1911911,31.1734048 C57.1694109,31.7365419 55.1201006,31.7013064 53.0841575,31.3056567 C51.8457873,31.065012 50.7495224,30.5085111 50.0800514,29.3591679 C49.7003609,28.7072308 49.5501397,27.9919329 49.5105157,27.2459816 C49.4971485,26.9933283 49.6077457,26.9288614 49.8381698,26.9296515 C51.1374878,26.9339177 52.4368059,26.9326536 53.736124,26.9249113 C53.9829387,26.9234892 54.0602772,27.0352002 54.0582085,27.2613083 C54.054071,27.7218988 54.0597998,28.1828054 54.0661651,28.6433959 C54.0781,29.5312375 54.7343631,30.2901454 55.6126162,30.4366179 C57.0597685,30.6777367 58.3423776,29.9305214 58.6620751,28.6599867 C58.8827921,27.7828895 58.4680924,26.9373938 57.6216658,26.5991007 C56.1348895,26.0048362 54.6250389,25.4644521 53.1583133,24.8259456 C52.5031642,24.5405849 51.8601092,24.1469893 51.3319479,23.6710721 C50.1538889,22.6094227 50.0502936,21.2810575 50.5358073,19.8316588 C51.0639686,18.2544324 52.219749,17.4013524 53.7424893,16.9259092 C55.767134,16.293723 57.8051458,16.1979707 59.8463402,16.8225726 C60.9504026,17.1603916 61.9354336,17.7224227 62.4970128,18.7660593 C62.7638782,19.2617274 62.8614265,19.8504617 63.0100564,20.4039603 C63.0753008,20.6471332 62.9397198,20.7571061 62.6782648,20.756 C61.431938,20.7507858 60.1856111,20.754262 58.9392842,20.7626363 C58.6881728,20.7643744 58.579167,20.6773125 58.5869645,20.4161269 C58.6011273,19.9425798 58.5965124,19.4682426 58.5904654,18.9943795 C58.5821905,18.355715 58.2605834,17.8818518 57.6587437,17.6634861 C56.8894965,17.3846036 56.133139,17.4583929 55.4437764,17.88596 C54.274788,18.6108964 54.3960471,20.4282934 55.7020487,21.1325308 C56.4157586,21.517278 57.2195376,21.740858 57.9894214,22.0186344 C59.1727318,22.4454114 60.3635214,22.8508575 61.4130012,23.5702636 C62.1874998,24.1010093 62.7971369,24.7502602 63.045543,25.6812378 C63.067185,25.7619794 63.143887,25.8281843 63.1949686,25.9011836 L63.1949686,27.0862365 Z" id="Fill-5"></path>
                            <path d="M0,23.2048872 C0.202703184,22.6196998 0.391978082,22.0294363 0.610667322,21.450277 C1.37544022,19.4248848 2.88836052,18.1337924 4.84505372,17.3258881 C7.40090428,16.2708377 10.0497937,16.1810529 12.7301756,16.7364178 C15.0243344,17.2116743 16.4120839,18.8804654 16.5019256,21.1772741 C16.5147144,21.5016732 16.430308,21.6196942 16.0856487,21.6155698 C14.7536905,21.5995481 13.4214127,21.6031966 12.0894545,21.6177906 C11.7754884,21.6212805 11.6786129,21.5262609 11.6805312,21.2093175 C11.6838883,20.61604 11.6651846,20.0187968 11.5966044,19.4299609 C11.4840626,18.463109 10.8789904,17.8281118 9.91439179,17.6801097 C8.51257458,17.4646897 7.16367121,17.9210691 6.49417521,19.3834823 C5.38586197,21.803864 4.82171407,24.3386182 4.71892374,26.9775925 C4.69510451,27.5870503 4.80221109,28.21713 4.94864336,28.8135801 C5.18315879,29.7691693 5.9442549,30.3113678 6.92547898,30.3667298 C8.69913185,30.4668255 9.65557755,29.634968 10.385341,27.8871789 C10.5674222,27.4511041 10.6766069,26.9813997 10.7814754,26.518675 C10.8444605,26.2413891 10.9509276,26.1133744 11.2557817,26.1159125 C12.6545616,26.1270167 14.0533414,26.1170229 15.4521213,26.1203542 C15.8373852,26.121306 15.8899794,26.2049041 15.7715227,26.583872 C15.2567717,28.2307722 14.1324724,29.370214 12.6638335,30.2038164 C10.4278639,31.473335 8.00501732,31.7804434 5.48241775,31.5088682 C4.43277334,31.3957648 3.4120637,31.179393 2.45625744,30.6960463 C1.40213693,30.1628898 0.648074692,29.3683104 0.169452189,28.3027904 C0.127568723,28.2096744 0.0572300789,28.1294074 0,28.0431125 C0,26.4303179 0,24.8176818 0,23.2048872" id="Fill-7"></path>
                            <path d="M29.3589104,25.620156 C29.4338602,25.4498821 29.4943658,25.3556404 29.5176372,25.2529329 C30.1236556,22.5809417 30.7283901,19.9084713 31.3249395,17.2344036 C31.3934697,16.9272396 31.5213819,16.7670288 31.8662796,16.8056838 C32.1436101,16.8368315 32.4270392,16.8155872 32.7079005,16.8163859 C32.9435031,16.8168651 33.047823,16.8996061 32.9911692,17.1606076 C32.4942855,19.4481247 32.0091176,21.7383572 31.5130363,24.0260341 C31.0623743,26.1052611 30.6022433,28.1825713 30.146285,30.2606802 C30.0722981,30.5983529 30.0259159,30.9457693 29.911164,31.2690662 C29.8636583,31.4029213 29.6728331,31.5714382 29.54139,31.5765496 C28.7804966,31.6065792 28.0173563,31.6080167 27.2564629,31.5794248 C27.1105756,31.5739939 26.9199109,31.4222488 26.8372574,31.2855185 C25.6318007,29.2920674 24.4390229,27.2911089 23.2480105,25.2890323 C22.4041426,23.8704554 21.5684599,22.4469269 20.725555,21.0278708 C20.664247,20.9245244 20.5729269,20.839068 20.4296074,20.6651202 C20.2935101,21.2016588 20.1781162,21.6322954 20.0752407,22.0659669 C19.3543099,25.1070979 18.6322556,28.1477498 17.9225592,31.1914366 C17.8516217,31.4960449 17.7150428,31.6084959 17.4035275,31.5982731 C16.3935503,31.5653684 16.3978836,31.7834021 16.6309182,30.6769409 C17.3075532,27.4623413 17.967818,24.2442275 18.6361074,21.0277111 C18.9038084,19.7385168 19.1787314,18.4506005 19.4425806,17.1606076 C19.4908887,16.9242047 19.6104554,16.8183026 19.8515146,16.8183026 C21.1482914,16.8178234 22.4453891,16.8032879 23.7418449,16.8213375 C23.8909421,16.8234141 24.0954091,16.9623806 24.1769392,17.0963955 C25.8359467,19.8268485 27.4806705,22.565927 29.1295671,25.3024497 C29.1812456,25.3882256 29.2467264,25.4655358 29.3589104,25.620156" id="Fill-9"></path>
                            <path d="M36.8773049,26.0193379 C37.0027292,26.0776512 37.0487609,26.117624 37.0951134,26.1177807 C38.5883366,26.1260888 40.0815598,26.1326726 41.5749434,26.1331428 C41.8203388,26.1331428 41.8580303,25.9901813 41.7832889,25.7867119 C41.2475891,24.328567 40.7168613,22.8685409 40.1749063,21.4125906 C40.1344882,21.3039586 40.0191684,21.2219752 39.9386531,21.1274513 C39.847552,21.209905 39.7306283,21.2773101 39.6693596,21.3773204 C39.1891544,22.1587494 38.7190538,22.9461352 38.2470284,23.7324236 C37.7972972,24.4817176 37.3490095,25.2316387 36.8773049,26.0193379 M31.7987421,31.1932288 C32.1644295,30.5527235 32.4682065,30.0086232 32.7833713,29.4711066 C34.4089155,26.6980917 36.0384695,23.9274282 37.664495,21.1548836 C38.4345234,19.8420515 39.2061557,18.5301599 39.9630322,17.2102738 C40.1328843,16.9140049 40.3349747,16.7787244 40.694888,16.8027081 C41.1868016,16.8356268 41.6828853,16.8254377 42.1765632,16.8103891 C42.4529137,16.8019243 42.6068873,16.8853185 42.7191598,17.1500795 C43.7559154,19.5954742 44.8075872,22.0347554 45.8547681,24.4757609 C46.7369085,26.5325573 47.6188886,28.5895105 48.5007083,30.6464636 C48.5614958,30.7883279 48.6193963,30.9314461 48.7044025,31.1363263 C48.5188322,31.1607803 48.3839449,31.1938558 48.2490577,31.1941693 C46.9401216,31.1969909 45.6311856,31.1888396 44.3222495,31.1974612 C44.0274542,31.199499 43.8749241,31.1099913 43.7689069,30.8196791 C43.3520554,29.6781814 42.9097021,28.5451485 42.4508287,27.4193264 C42.3985418,27.2910999 42.1828184,27.1465708 42.0415155,27.1450033 C40.2518931,27.1263493 38.4619499,27.1238412 36.6724879,27.1468843 C36.5098533,27.1489222 36.2902805,27.3218241 36.1980568,27.4738775 C35.5239411,28.5843375 34.867789,29.7054569 34.2252699,30.8337871 C34.076108,31.0957265 33.9048124,31.2109422 33.5946197,31.1991855 C33.0379089,31.1780234 32.4797546,31.1932288 31.7987421,31.1932288" id="Fill-11"></path>
                        </g>
                        <text id="ISO27001认证—-CNAS授信认证" font-family="PingFangSC-Medium, PingFang SC" font-size="14" font-weight="400" fill="#666666">
                            <tspan x="92" y="35">ISO27001认证—</tspan>
                            <tspan x="92" y="55">CNAS授信认证</tspan>
                        </text>
                    </g>
                </g>
            </g>
        </g>
    </g>
</svg>