<?xml version="1.0" encoding="UTF-8"?>
<svg width="129px" height="129px" viewBox="0 0 129 129" version="1.1" xmlns="http://www.w3.org/2000/svg" xmlns:xlink="http://www.w3.org/1999/xlink">
    <!-- Generator: sketchtool 50.2 (55047) - http://www.bohemiancoding.com/sketch -->
    <title>C2124ECB-C9B1-421B-B452-26D88CA83662</title>
    <desc>Created with sketchtool.</desc>
    <defs>
        <linearGradient x1="2.34375%" y1="2.34375%" x2="100%" y2="100%" id="linearGradient-1">
            <stop stop-color="#5CD5FF" offset="0%"></stop>
            <stop stop-color="#1783FF" offset="100%"></stop>
        </linearGradient>
    </defs>
    <g id="官网" stroke="none" stroke-width="1" fill="none" fill-rule="evenodd">
        <g id="云笔记官网_mac" transform="translate(-1552.000000, -3521.000000)">
            <g id="Group-41" transform="translate(943.000000, 3207.000000)">
                <g id="Group-65" transform="translate(571.000000, 280.000000)">
                    <g id="Group-Copy">
                        <g id="Group-70" transform="translate(38.000000, 34.000000)">
                            <g id="Group-69">
                                <path d="M129,64.5 C129,100.122429 100.122429,129 64.5,129 C28.8775714,129 0,100.122429 0,64.5 C0,28.8775714 28.8775714,0 64.5,0 C100.122429,0 129,28.8775714 129,64.5" id="Fill-1" fill="url(#linearGradient-1)"></path>
                                <g id="Group-3" transform="translate(32.250000, 38.008929)" fill="#FFFFFF">
                                    <path d="M32.25,48.7205357 C22.8885417,48.7205357 14.95325,42.6827982 12.0041667,34.2721902 L17.9130833,34.2721902 L8.95654167,19.8617384 L0,34.2721902 L6.37475,34.2721902 C9.508375,45.7179071 19.8892917,54.1339286 32.25,54.1339286 C40.04375,54.1339286 47.042,50.7722116 51.9511667,45.4346062 C50.8994583,45.041233 48.9429583,44.3086205 46.397,43.3450366 C42.6147917,46.6814911 37.673375,48.7205357 32.25,48.7205357 L32.25,48.7205357 Z M58.5875,21.6662027 C56.1006667,9.30562232 45.2557083,0 32.25,0 C23.9492083,0 16.5317083,3.79478839 11.6028333,9.74952054 C12.754875,10.2529661 14.560875,11.041517 16.807625,12.0213411 C20.7170417,7.95227411 26.1852083,5.41339286 32.25,5.41339286 C42.269,5.41339286 50.6611667,12.3244911 53.0476667,21.6662027 L46.5869167,21.6662027 L55.5434583,36.0766545 L64.5,21.6662027 L58.5875,21.6662027 Z" id="Fill-1"></path>
                                </g>
                            </g>
                        </g>
                    </g>
                </g>
            </g>
        </g>
    </g>
</svg>