<?xml version="1.0" encoding="UTF-8"?>
<svg width="212px" height="80px" viewBox="0 0 212 80" version="1.1" xmlns="http://www.w3.org/2000/svg" xmlns:xlink="http://www.w3.org/1999/xlink">
    <!-- Generator: sketchtool 50.2 (55047) - http://www.bohemiancoding.com/sketch -->
    <title>B3E990AE-4DFB-4210-9805-757E795FD4DD</title>
    <desc>Created with sketchtool.</desc>
    <defs>
        <polygon id="path-1" points="2.24758122e-17 3.80018134 2.24758122e-17 0.0478054862 4.32293962 0.0478054862 4.32293962 3.80018134"></polygon>
        <polygon id="path-3" points="2.77737143 3.80606682 2.77737143 0.0468777984 0.0826624016 0.0468777984 0.0826624016 3.80606682 2.77737143 3.80606682"></polygon>
    </defs>
    <g id="官网" stroke="none" stroke-width="1" fill="none" fill-rule="evenodd">
        <g id="云笔记官网_mac" transform="translate(-1262.000000, -4572.000000)">
            <g id="认证信息" transform="translate(0.000000, 4552.000000)">
                <g id="Group-39" transform="translate(1262.000000, 20.000000)">
                    <g id="Group-33">
                        <rect id="Rectangle-6-Copy-2" opacity="0.5" x="0" y="0" width="80" height="80"></rect>
                        <g id="资源-3" transform="translate(19.000000, 7.000000)">
                            <path d="M18.7610318,43.2518913 C18.5178273,42.981492 18.2900154,42.7325927 18.0670696,42.4794934 C17.2729059,41.5779959 16.4794374,40.6757983 15.6874585,39.7724008 C14.4094678,38.3144048 13.1538212,36.8357088 11.8421652,35.4092127 C11.4738329,35.0086138 11.3651903,34.6228149 11.3681695,34.1065163 C11.3864421,30.8490251 11.3775045,27.591334 11.3775045,24.3337429 C11.3775045,24.2446432 11.3775045,24.1555434 11.3775045,24.0665437 L11.4342091,24.0415437 C13.8666519,27.3692346 16.299194,30.6969256 18.755272,34.0569164 C23.6044669,26.9145359 28.4329064,19.8026553 33.261346,12.6906747 C33.2791221,12.6974747 33.2968982,12.7043747 33.3146743,12.7111746 C33.3193417,12.7813744 33.3282794,12.8516743 33.3282794,12.9219741 C33.3290739,15.3630674 33.3315566,17.8041607 33.3230161,20.2452541 C33.3225196,20.4000537 33.2670066,20.5742532 33.1844819,20.7061528 C32.5463306,21.72625 31.8966597,22.7391473 31.2473859,23.7523445 C30.7725958,24.4934425 30.2902583,25.2296405 29.8162627,25.9713385 C29.0875428,27.1114353 28.3644834,28.2552322 27.6364587,29.3957291 C27.0380305,30.3332266 26.4345376,31.267424 25.8356129,32.2046215 C25.2368868,33.1416189 24.6439205,34.0824163 24.043109,35.0180138 C23.5723905,35.7510118 23.0893578,36.4760098 22.6196324,37.2096078 C22.0200125,38.1458052 21.43082,39.0887027 20.8323918,40.0257001 C20.3363498,40.802398 19.8327605,41.5741959 19.3338386,42.3490938 C19.146445,42.640093 18.962825,42.9335922 18.7610318,43.2518913" id="Fill-1" fill="#666666"></path>
                            <path d="M27.1614556,17.5088223 C27.3512832,17.5027525 27.5256978,17.3037422 27.5152568,17.105329 C27.5049152,16.9105975 27.3278158,16.7346724 27.1481309,16.7405432 C26.949155,16.7471106 26.8074556,16.9231351 26.8129247,17.1571712 C26.8171011,17.3350864 26.9945983,17.5141956 27.1614556,17.5088223 Z M19.7659372,8.75117724 C19.7663349,8.94133153 19.9138018,9.07675801 20.1250086,9.08083772 C20.3382041,9.08491743 20.521071,8.93217706 20.5181873,8.75217229 C20.5148064,8.54231598 20.3330333,8.35524634 20.1303782,8.35315674 C19.9444288,8.35126614 19.76544,8.54669421 19.7659372,8.75117724 Z M20.1345547,9.998872 C20.3413861,9.99867299 20.5111272,9.86384355 20.5181873,9.6940878 C20.527435,9.4727884 20.3266693,9.2494989 20.1214288,9.25288208 C19.9398546,9.25586723 19.7595731,9.4766691 19.7661361,9.68801799 C19.7722018,9.88006288 19.9132052,9.99917052 20.1345547,9.998872 Z M20.1550389,6.30046551 C20.3409884,6.2962863 20.5213693,6.09797258 20.5156019,5.9041366 C20.5103317,5.7274155 20.3132451,5.51745968 20.1559339,5.52084286 C19.9327945,5.5256191 19.7553967,5.7177635 19.7658377,5.94324211 C19.7759804,6.16076032 19.9334906,6.30544077 20.1550389,6.30046551 Z M20.1652811,6.51450104 C19.9063439,6.50723716 19.7682243,6.63161857 19.764545,6.87550563 C19.7608658,7.11461644 19.887749,7.2458637 20.1257046,7.24904787 C20.3567991,7.25213253 20.5132154,7.11391991 20.5202755,6.90038191 C20.5276339,6.67719192 20.3836474,6.52067035 20.1652811,6.51450104 Z M13.4667251,17.1221454 C13.4643385,16.9318916 13.2601919,16.7188511 13.0740435,16.7124828 C12.9140475,16.7069105 12.7354564,16.9154732 12.7381413,17.104533 C12.7418205,17.3649379 12.8726812,17.5114094 13.0994003,17.5087228 C13.2880346,17.5064342 13.4691116,17.3158819 13.4667251,17.1221454 Z M19.7641473,7.8067741 C19.7676276,8.05444235 19.9085316,8.19036635 20.153249,8.18180891 C20.3703227,8.17424652 20.5187839,8.01991407 20.5202755,7.80030626 C20.5217671,7.56169297 20.3752946,7.41601747 20.1367423,7.41890312 C19.8817827,7.42208728 19.7605675,7.54835929 19.7641473,7.8067741 Z M19.4397798,15.8509674 C19.7175108,16.1447065 19.9409484,16.3810312 20.1768159,16.6304906 C20.3945856,16.3950614 20.5940586,16.1868967 20.7815991,15.9683835 C20.809939,15.9353478 20.8070553,15.8308674 20.7769255,15.7996228 C20.5781485,15.5933487 20.3680356,15.3980201 20.1991895,15.2354287 C19.9545715,15.4337424 19.7108484,15.6312601 19.4397798,15.8509674 Z M20.8347986,5.81249238 C20.8074531,5.81746763 20.7801076,5.82244289 20.7526626,5.82751765 L20.7526626,10.1202683 C20.9799784,10.1954941 20.9707306,10.0535003 20.9706312,9.91110848 C20.9694379,8.73475889 20.9760008,7.5584093 20.9640683,6.38225872 C20.9620795,6.19190542 20.8799435,6.00234816 20.8347986,5.81249238 Z M19.4376916,5.71855954 C19.3859838,5.95209807 19.3095158,6.14115781 19.3077259,6.33081457 C19.2964894,7.51452754 19.3019585,8.69834002 19.3019585,9.88215249 C19.3019585,9.96175659 19.3019585,10.0413607 19.3019585,10.1279301 L19.5460793,10.1279301 C19.6457164,9.49875924 19.5883405,5.89727074 19.4376916,5.71855954 Z M20.3751951,4.09722303 C20.3751951,3.73830805 20.3818575,3.42367284 20.369726,3.10983367 C20.3672401,3.04575237 20.3037985,2.94395863 20.2513946,2.93142099 C20.1793018,2.9143061 20.0697209,2.9433616 20.0159249,2.99450723 C19.9664046,3.04147365 19.9539749,3.14346641 19.9519861,3.22187645 C19.944926,3.50178436 19.9492018,3.78199079 19.9492018,4.09712353 C19.674454,4.09712353 19.4283444,4.09533243 19.1824337,4.09762105 C18.9796792,4.09951165 18.8136174,4.23901783 18.8208764,4.41952013 C18.8302236,4.65086955 19.0119966,4.62877941 19.1694073,4.62917743 C19.8131703,4.63076951 20.4572317,4.62111751 21.1005969,4.63863042 C21.2872425,4.64370518 21.3852885,4.61723682 21.3906582,4.41524141 C21.395829,4.22180345 21.3480986,4.08966064 21.1184958,4.09582996 C20.8803413,4.10209878 20.6419879,4.09722303 20.3751951,4.09722303 Z M16.83778,15.7853935 C16.5019772,15.8454946 16.0528148,15.9128596 15.6104141,16.0104741 C15.3661939,16.0643064 15.2020214,16.2877949 15.2229034,16.463521 C15.2465697,16.6639243 15.4802495,16.8842286 15.7212877,16.8671138 C16.164285,16.8357696 16.6079783,16.7839275 17.0446115,16.7038258 C17.2966874,16.657556 17.4759745,16.3800362 17.4483307,16.1786378 C17.4183003,15.9604231 17.200829,15.7885777 16.83778,15.7853935 Z M24.4325727,16.8737806 C24.7396379,16.880746 25.0110048,16.6842233 25.046902,16.4585457 C25.0765346,16.2720731 24.8883975,16.0487836 24.6154395,15.9929612 C24.2194766,15.9119641 23.8199338,15.8429075 23.4188001,15.7950455 C23.2911214,15.7798213 23.1356995,15.8188273 23.0245275,15.8855952 C22.8602556,15.9842048 22.7385432,16.182817 22.8429533,16.348493 C22.9461702,16.5120795 23.1384837,16.6748699 23.3212512,16.7209407 C23.6942439,16.8150726 24.0870249,16.8306949 24.4325727,16.8737806 Z M20.6437778,12.9971604 C20.6721176,13.240749 20.6562075,13.4496102 20.7248199,13.6254358 C20.8859098,14.037785 21.1592655,14.3730178 21.4841301,14.6828768 C21.8899375,15.0700512 22.8042719,15.0100496 23.1498197,14.7886507 C23.7438636,14.4081431 24.0864282,13.8549941 24.0752912,13.1330844 C24.0734018,13.0108921 23.950894,12.8381512 23.8380316,12.7824284 C23.6696827,12.6991426 23.5115759,12.8063096 23.4585753,12.9927822 C23.4214849,13.12393 23.4207888,13.2653267 23.4037849,13.4021463 C22.9041078,13.3334878 22.630255,12.4311753 22.9362264,12.0436028 C23.001259,11.9612126 23.1209826,11.9041961 23.2264865,11.8751406 C23.5033225,11.7987207 23.7646462,11.8711604 24.0133412,12.0018107 C24.2467226,12.124401 24.3890187,12.047185 24.4285951,11.7833969 C24.4542502,11.6118501 24.468271,11.4354275 24.51978,11.271244 C24.6480553,10.8625765 24.8442469,10.4983877 25.2739194,10.2905215 C25.5517498,10.8237695 25.5488661,11.3674655 25.4333189,11.9199179 C25.3716672,12.2145526 25.4881093,12.3749549 25.7843358,12.4150554 C25.9360785,12.4355535 26.0907049,12.483316 26.228228,12.5509794 C26.5016831,12.6855104 26.6050988,12.9370593 26.5488168,13.2628391 C26.4856735,13.6277244 26.2424476,13.9230556 25.9625291,13.9553948 C25.8795976,13.9649473 25.7918931,13.9338022 25.6916594,13.9191749 C25.7291476,13.8307149 25.7834408,13.7660365 25.774392,13.7121048 C25.7465493,13.5479213 25.7313352,13.3590606 25.6369683,13.2375648 C25.5855588,13.1712944 25.375247,13.1914939 25.2515458,13.2261217 C24.9627772,13.3068204 24.7440132,13.8320084 24.7800098,14.1807739 C24.8483239,14.843876 25.3157829,15.1322419 25.8414133,15.3685666 C25.986792,15.4339414 26.1580246,15.4770272 26.3160319,15.473047 C27.0018573,15.4557331 27.4477383,14.8583043 27.6973282,14.2301284 C27.492386,14.0927119 27.4457495,14.105548 27.2513478,14.2001774 C26.9076893,14.367346 26.7232314,14.6902401 26.4944241,14.9629837 C26.3796724,15.0999027 26.3024089,15.0983107 26.16061,15.0497522 C26.607187,13.9327076 27.0471017,12.8324794 27.4870164,11.7321518 C27.5145607,11.7368285 27.5422046,11.7416048 27.569749,11.7462815 C27.569749,11.8908624 27.5779029,12.0359409 27.5679591,12.1798253 C27.5496624,12.4437129 27.4875135,12.7093916 27.5081967,12.9691995 C27.5209248,13.1294027 27.6201641,13.3158753 27.7398877,13.425928 C27.8884484,13.5623495 28.0511294,13.4612523 28.0740001,13.2550777 C28.0877226,13.1316914 28.109599,13.009101 28.1185485,12.8854162 C28.1592187,12.3273914 28.1817912,11.7743419 27.8000479,11.2969164 C27.7618636,11.2492534 27.7778731,11.125071 27.8114833,11.057905 C28.3331361,10.0154894 28.519185,8.94959046 28.0663434,7.83075483 C27.8201344,7.22257951 27.4060736,6.737094 26.8302269,6.45867866 C26.0853353,6.09866912 25.2836644,5.96871542 24.4678732,6.25180751 C23.8359434,6.47121631 23.2163438,6.73002914 22.5764589,6.921477 C22.1389308,7.05232624 21.675847,7.09740206 21.2246958,7.18078735 L21.2246958,10.1525079 L21.8960032,10.1525079 L21.8960032,10.5172937 C21.4146228,10.4285351 21.1581716,10.7303342 20.9164373,11.0405912 C20.6613783,11.367963 20.5594541,11.7379231 20.6633671,12.1493768 C21.4177054,12.2364437 21.9378667,11.8839966 22.1110881,11.1611914 C22.1565313,10.9717336 22.2341926,10.9050652 22.4333673,10.9920327 C22.4333673,12.0943504 22.4348589,13.1961707 22.4287932,14.2979909 C22.4284949,14.3490371 22.3603797,14.3997847 22.3237864,14.4507313 C22.2835139,14.4022723 22.2245471,14.3597836 22.2065488,14.3040607 C22.1670718,14.1813709 22.1791038,14.0334068 22.1157617,13.9287274 C21.7999459,13.406226 21.2932087,13.1685083 20.6437778,12.9971604 Z M18.397369,10.143652 L19.0512747,10.143652 L19.0512747,7.14854769 C18.3384022,7.10307385 17.6568526,6.95033348 16.995489,6.69968007 C16.5174895,6.51848124 16.0402855,6.32792893 15.5491602,6.19001482 C14.7746359,5.97259612 14.0293465,6.15170535 13.3470015,6.52017283 C12.7185519,6.8594853 12.3350187,7.43462493 12.1138681,8.10897116 C12.0455541,8.31723539 11.9964316,8.53724122 11.9774389,8.75515744 C11.9092243,9.54164595 12.0929861,10.2822626 12.4063159,10.9994955 C12.4485772,11.0964135 12.4475828,11.2436811 12.405421,11.3410966 C12.1400204,11.9536502 11.956358,12.5728706 12.172835,13.2400524 C12.2007771,13.3260249 12.2971328,13.4605558 12.3467524,13.454287 C12.4605098,13.4397592 12.596939,13.3763745 12.6643581,13.2874169 C12.732175,13.1979618 12.7532559,13.0526843 12.7492783,12.9334772 C12.7409255,12.6862069 12.6928969,12.4405288 12.6798705,12.193159 C12.6722137,12.0484786 12.7004542,11.9019075 12.7125856,11.7561325 C12.7428148,11.7542419 12.7731435,11.7524508 12.8033727,11.7505602 C13.2430885,12.8507884 13.6828043,13.9510166 14.1225201,15.0512447 C14.0992516,15.075524 14.075983,15.0997037 14.0527145,15.123983 C13.9580493,15.0616928 13.8511532,15.0121392 13.7711054,14.9347242 C13.5303655,14.7019817 13.3097121,14.4477461 13.0622104,14.2228646 C12.9125559,14.0867416 12.7317772,14.0890302 12.5501036,14.2522186 C12.6330351,14.4175961 12.6976699,14.5981979 12.8043671,14.7490477 C13.0590284,15.1091567 13.389561,15.3868755 13.8366352,15.4593152 C14.3698229,15.5456857 14.7935292,15.2598075 15.1403697,14.9241767 C15.6489962,14.4320243 15.6272192,13.8066346 15.1332101,13.2963723 C15.0507758,13.2112955 14.8615449,13.1580602 14.7523618,13.1911954 C14.6464601,13.2234351 14.5409561,13.3746829 14.5070477,13.4939895 C14.4726421,13.6153858 14.5257421,13.7617578 14.5412544,13.9031546 C14.262728,14.0229588 14.0136353,13.9145977 13.7607639,13.5496129 C13.583565,13.2938847 13.6023588,12.9257158 13.8576167,12.7158594 C14.0280538,12.5758557 14.2504971,12.4677932 14.4660791,12.4212248 C14.7987994,12.3493821 14.8877966,12.2396279 14.8286309,11.8935491 C14.7344629,11.3424897 14.7148736,10.794316 15.0131882,10.2706205 C15.4083557,10.5020694 15.6364669,10.8308344 15.7452523,11.2460692 C15.7934799,11.4300542 15.8293771,11.6175219 15.8660698,11.804293 C15.9166838,12.0629068 16.0104541,12.1077836 16.2417474,12.0019102 C16.3829496,11.9373313 16.5329025,11.8810114 16.6848441,11.852354 C17.0367559,11.7858845 17.3277121,11.9477794 17.3919492,12.2384339 C17.4238689,12.3830148 17.4418672,12.532969 17.4455464,12.6810326 C17.4526065,12.9688015 17.1376857,13.3424432 16.839371,13.4051314 C16.8447407,13.3532893 16.865225,13.300253 16.8519003,13.2578639 C16.8021811,13.1000487 16.783984,12.8958642 16.674403,12.8022299 C16.5236547,12.6733708 16.3451631,12.7837219 16.2339912,12.9365618 C16.1872552,13.0008421 16.1326636,13.0975611 16.1487726,13.1630355 C16.2191749,13.4496102 16.2722749,13.7525038 16.4091019,14.0079335 C16.6906115,14.5334201 17.1140194,14.9075593 17.7430656,14.9559188 C18.0842381,14.9820887 18.4493752,14.9831832 18.7082129,14.7344204 C18.9974786,14.4564031 19.2676523,14.143161 19.4766714,13.8025549 C19.6033557,13.5962808 19.5983838,13.3090095 19.655163,13.0464155 C19.2780933,13.0367635 18.6490471,13.3422442 18.3959769,13.6305106 C18.2461235,13.8012613 18.0490369,13.9450463 18.067433,14.2172923 C18.0735982,14.3071454 18.1251072,14.4684432 17.9420414,14.4399847 C17.8958027,14.4328204 17.8399184,14.2949063 17.8394212,14.2166952 C17.8323611,13.2548787 17.8296762,12.2928632 17.8410122,11.3311461 C17.8424043,11.2076603 17.7249678,11.0000926 17.9529796,10.9602905 C18.2110218,10.9152147 18.1624959,11.1629825 18.1794999,11.2882594 C18.2500016,11.8089697 19.1446472,12.3529643 19.605245,12.1225104 C19.6571518,11.7358335 19.619763,11.3672665 19.3660961,11.0450689 C19.1208815,10.7337174 18.865723,10.4398787 18.397369,10.5093333 L18.397369,10.143652 Z M28.2793401,7.33352772 C28.3907109,7.58109647 28.5021811,7.82866522 28.6388092,8.13225536 C28.8296312,8.0087695 29.0120008,7.8728455 29.2113745,7.76985769 C29.3000734,7.72408534 29.465638,7.69542786 29.5220195,7.74448389 C29.6705801,7.87374104 29.8455914,8.03663093 29.879997,8.21166045 C29.9044588,8.33634037 29.7396897,8.52400704 29.620165,8.64470675 C29.4729964,8.79346692 29.3066363,8.71863906 29.1494245,8.61167105 C29.0251267,8.5270917 28.8828306,8.46878169 28.6849485,8.36569438 C28.7055323,8.82441301 28.7216413,9.18422354 28.738148,9.55348706 C28.9202194,9.64921099 29.0745475,9.64851446 29.1941717,9.44472796 C29.2241026,9.39378134 29.2899307,9.34353125 29.3468093,9.33258568 C29.6122099,9.28153955 29.7546054,9.47836069 29.8993875,9.64284266 C30.024083,9.78443846 29.9666077,9.93439268 29.8657774,10.0733018 C29.6017689,10.4370926 29.3909599,10.4440579 29.0726582,10.1316118 C28.9799817,10.0406642 28.8230682,10.0154894 28.6381131,9.93518872 L28.6381131,10.852825 C28.8471323,10.8219784 29.0111059,10.776007 29.1727924,10.7829724 C29.2553262,10.7865546 29.348102,10.8722285 29.4112453,10.9430761 C29.5726335,11.1241755 29.5837706,11.3357234 29.4653397,11.5411019 C29.3389537,11.7604112 29.1329177,11.7901633 28.8858137,11.7318533 C28.8886975,11.7982232 28.8753727,11.8672797 28.8969508,11.9227041 C29.0410368,12.2925646 28.9247935,12.6321756 28.7957227,12.9760653 C28.3505378,14.1620669 27.9119159,15.3505561 27.4673276,16.5368562 C27.4228787,16.6553669 27.4218843,16.736762 27.5160523,16.8447251 C27.7204973,17.0789602 27.5810849,17.550515 27.2824719,17.5859388 C27.0717624,17.6110141 27.0285067,17.7267385 26.9707331,17.871618 C26.9348359,17.9614711 26.8977455,18.0507272 26.8655275,18.1295353 C22.373605,16.6344708 17.9109173,16.6369584 13.4180998,18.1287392 C13.3906548,18.0690362 13.3497857,17.9900291 13.3174683,17.9076388 C13.2518391,17.7400722 13.2122627,17.5896205 12.9588941,17.5848442 C12.7105969,17.5801675 12.5423474,17.1345835 12.7043323,16.8984579 C12.8457334,16.6922833 12.8051626,16.5203384 12.7298879,16.3248108 C12.5932598,15.9695775 12.4604103,15.6128517 12.3244783,15.2573198 C11.978831,14.3528183 11.6305984,13.4492122 11.2894259,12.5429195 C11.2598927,12.464609 11.2592961,12.366696 11.2734163,12.2825146 C11.3016568,12.1133559 11.3493871,11.9474809 11.3923444,11.7666801 C11.1310208,11.7551375 10.8460309,11.7693667 10.7882573,11.4765231 C10.7522606,11.2940307 10.7881578,11.0549199 10.8850107,10.8994929 C11.0028449,10.7105327 11.281968,10.726553 11.5929113,10.892627 C11.6095175,10.6535162 11.6360675,10.4393812 11.6330844,10.2256442 C11.6319905,10.1504183 11.5519428,10.0105141 11.5190287,10.0136983 C11.4086523,10.0244448 11.3013585,10.0822573 11.1964511,10.1299203 C11.039836,10.2012654 10.8732769,10.358981 10.7343618,10.3362939 C10.5132112,10.300273 10.3593802,10.1111138 10.3370066,9.8550871 C10.3157269,9.61120003 10.4399252,9.46353443 10.6436741,9.36721347 C10.8324078,9.27785786 11.008314,9.31507278 11.1354955,9.47388296 C11.2305585,9.59269208 11.3442163,9.66751993 11.4648349,9.58224404 C11.5337456,9.53358604 11.5601961,9.39278628 11.5651681,9.29139056 C11.5783933,9.0203386 11.5696428,8.74829159 11.5696428,8.46161732 C11.4143203,8.43305935 11.2817691,8.39275978 11.164432,8.57057544 C11.0424214,8.75585398 10.8225635,8.77595401 10.6355202,8.66212015 C10.4405218,8.54341054 10.2823156,8.22101393 10.3917971,8.07324882 C10.5077421,7.91662775 10.6737044,7.76906165 10.8502073,7.69333825 C11.0322787,7.61522673 11.113818,7.82577957 11.2352321,7.93225006 C11.3425259,8.02638191 11.51704,8.0437953 11.6579439,8.09374688 C11.7572827,7.85662616 11.8464788,7.64388421 11.9375642,7.42646551 C11.7533052,7.3448713 11.6013636,7.21511662 11.35595,7.2942232 C11.1688073,7.35462281 10.9143449,7.07978965 10.8923691,6.86664967 C10.8687028,6.63738986 11.0578343,6.3702186 11.2761012,6.32454575 C11.4782591,6.28225607 11.8070018,6.47350492 11.8238069,6.69132164 C11.8414074,6.91928788 11.9645119,7.00327021 12.1532457,7.06745102 C12.291962,6.90893935 12.431076,6.74634798 12.5742671,6.58743829 C12.7082103,6.43877764 12.6606789,6.29180857 12.4608081,6.22981687 C12.3435704,6.193398 12.2247417,6.15479001 12.1162546,6.09866912 C11.9162844,5.99518379 11.8538372,5.77557598 11.9389563,5.52432554 C12.0172142,5.29357315 12.2191732,5.16123133 12.4450968,5.19267495 C12.6465587,5.2207354 12.8307182,5.42681051 12.8452362,5.63726385 C12.8565722,5.80164632 12.765089,5.99269616 12.9473593,6.11369439 C12.9949902,6.14523752 13.0868711,6.15707863 13.1348997,6.13220234 C13.3060329,6.04374229 13.4670234,5.93558022 13.6540667,5.82124883 C13.6342785,5.68791196 13.6059386,5.54044537 13.4163099,5.44422391 C13.178752,5.3237232 13.1343031,5.0071974 13.2876368,4.77664403 C13.4380869,4.55026987 13.7372964,4.46021773 13.9372667,4.58111645 C14.1608038,4.71634392 14.2678988,5.11257333 14.1003454,5.30402119 C13.9639161,5.45984621 13.9999128,5.57885434 14.0888105,5.7235348 C14.400251,5.69358375 14.7103988,5.66373222 15.0309876,5.63288563 C15.0924405,5.46233384 15.0545545,5.32700687 14.9193185,5.19406803 C14.7336674,5.01167513 14.7389376,4.71544837 14.9086786,4.5490758 C15.0993017,4.36220518 15.411836,4.33653286 15.5886372,4.49325343 C15.787613,4.66967602 15.8122737,4.97446021 15.6433282,5.18083384 C15.596095,5.23844731 15.5386197,5.28889641 15.4988444,5.35098761 C15.3918489,5.51755919 15.4638422,5.66074706 15.6563546,5.70741497 C15.8794939,5.76144625 16.0986558,5.83189588 16.384839,5.9138881 C16.3679345,5.7779641 16.3749946,5.63955247 16.3305457,5.52044484 C16.2550721,5.31854894 16.3143373,4.98490825 16.4779131,4.85714367 C16.6250817,4.74221525 16.9699334,4.76748955 17.1249576,4.90938386 C17.3145863,5.0829208 17.2770981,5.65796092 16.974607,5.73647046 C16.8975424,5.75647099 16.8203783,5.84234392 16.7786143,5.91756979 C16.7057261,6.04911557 16.7471918,6.15110832 16.9034093,6.19996534 C17.1161076,6.26643476 17.3235357,6.3508151 17.5378251,6.41071719 C17.6221487,6.4342999 17.7191009,6.41260779 17.8102858,6.41151323 C17.8021319,6.3061373 17.8237099,6.18613412 17.7803549,6.09797258 C17.6318936,5.79587502 17.6885734,5.50163837 17.9473116,5.35835099 C18.1836763,5.22750175 18.4666775,5.29566276 18.6017145,5.5158676 C18.7548494,5.76582447 18.7088095,5.98592981 18.4828859,6.17419351 C18.3643555,6.2730021 18.1186437,6.28046498 18.2113201,6.57728877 C18.4702572,6.61151853 18.7499769,6.64843493 19.0679803,6.69032659 C19.0679803,6.47718661 19.0421264,6.29210708 19.0754382,6.11837113 C19.1072584,5.95239658 19.2007304,5.79836265 19.274613,5.62124353 C18.7729472,5.20750122 18.651732,4.65843194 18.7818966,4.02597736 C18.8523983,3.68328171 19.030691,3.41352332 19.3037484,3.2112294 C19.6852928,2.92873435 19.8841692,2.57151095 19.8303731,2.08871208 C19.8222192,2.01497878 19.8354445,1.93885736 19.8277878,1.86512406 C19.8170484,1.76273329 19.7957686,1.66153658 19.779063,1.55984234 C19.6467108,1.59108695 19.5134636,1.61954542 19.3825034,1.65576528 C19.3543624,1.66352668 19.3345742,1.70014457 19.3099135,1.72223471 C19.2362298,1.78850512 19.1620489,1.8541785 19.0879674,1.9201504 C19.0652955,1.80621703 19.0287022,1.6930797 19.022736,1.57825079 C19.0121955,1.37157864 19.0150792,1.16371244 19.023432,0.956741778 C19.0256197,0.900819898 19.0675826,0.846490099 19.0912489,0.791463765 C19.1424596,0.822907385 19.1955596,0.851664366 19.2443837,0.886391654 C19.3405405,0.954950686 19.4284439,1.07246624 19.5305669,1.08560091 C19.6485007,1.1009247 19.8294782,1.06420731 19.8919254,0.981319544 C20.0161237,0.816340046 19.9103215,0.407772003 19.76544,0.272246022 C19.6987169,0.209756804 19.6496939,0.128063096 19.5495596,0 L20.6966789,0 C20.6676429,0.081892718 20.6641626,0.173138918 20.619316,0.203985506 C20.4285935,0.334834746 20.3997564,0.532153409 20.3954805,0.729770588 C20.3928951,0.848380697 20.4183513,1.05166967 20.4790086,1.0716702 C20.6527272,1.12888564 20.8567744,1.14291587 20.9931042,0.948582358 C21.0414312,0.879724811 21.1075576,0.823305405 21.1656295,0.761214207 C21.1925773,0.773950863 21.219525,0.786787024 21.2464728,0.799623185 C21.2464728,1.13614952 21.2487599,1.47267585 21.2433902,1.80910268 C21.2426941,1.84711364 21.1984441,1.88432855 21.1744795,1.92194149 C21.1331132,1.89119441 21.0813059,1.86800971 21.0521705,1.82830717 C20.9059963,1.62869989 20.7347637,1.49556203 20.4443047,1.57148444 C20.4443047,1.89587115 20.4032367,2.22433757 20.4601154,2.53479356 C20.4930294,2.71469882 20.6525283,2.90813679 20.8085469,3.02226916 C21.4294391,3.47641056 21.7002094,4.06876457 21.5072992,4.81127181 C21.4268537,5.12103126 21.2056037,5.39427234 21.035266,5.70821101 C21.3451155,5.91955989 21.1456424,6.31718237 21.2288722,6.68186866 C21.5075975,6.64903196 21.7805554,6.6167923 22.0534139,6.58465215 C22.0703184,6.56007438 22.0872229,6.53559612 22.1041274,6.51101836 C22.0235824,6.4304192 21.9532796,6.33479478 21.8607026,6.27180804 C21.5115751,6.03399079 21.5136633,5.57109294 21.8640835,5.35855 C22.0579881,5.24093494 22.2372752,5.28073699 22.3957797,5.39805353 C22.5468263,5.50969828 22.616632,5.91030592 22.5087415,6.03767248 C22.3818583,6.18742769 22.393592,6.31519227 22.5235578,6.49310743 C22.8640342,6.37688545 23.2114714,6.25827534 23.5527433,6.14185434 C23.5452855,5.91717177 23.5013338,5.78741709 23.2909225,5.71537538 C23.0392444,5.62930344 22.9557163,5.27158252 23.0884663,5.01227216 C23.1963568,4.8014208 23.5396175,4.71116965 23.7604698,4.83545155 C23.9768473,4.95734533 24.0957754,5.30750387 23.954076,5.50551907 C23.8421085,5.66194112 23.8824805,5.77288934 23.9616333,5.89995738 C24.2068479,5.83169687 24.4435109,5.76841161 24.6784834,5.69915604 C24.8266463,5.6555728 24.837684,5.46880168 24.7230317,5.31546428 C24.6375148,5.20103338 24.53748,5.0751594 24.5135154,4.94182253 C24.46668,4.6810196 24.5876963,4.51186089 24.8303255,4.42439588 C25.0554537,4.34329921 25.2417014,4.41593795 25.3720649,4.60420164 C25.5091902,4.80211734 25.482143,5.00092858 25.3543649,5.2053121 C25.2822722,5.32043953 25.2551256,5.46362741 25.1972526,5.62343264 C25.5681571,5.66204063 25.8760178,5.69408128 26.1810943,5.72592292 C26.2858027,5.56790878 26.3289589,5.4382536 26.1545443,5.29287661 C25.9785386,5.14610656 26.0504324,4.93774282 26.1507656,4.79475396 C26.2348903,4.67485028 26.392301,4.56111592 26.5327078,4.53793123 C26.6945932,4.51116435 26.8743775,4.57653922 26.965264,4.76370836 C27.1078584,5.05704947 27.0519742,5.28819987 26.8056657,5.48910072 C26.6978747,5.57706325 26.6216056,5.70363377 26.5036718,5.84562758 C26.685246,5.92135098 26.7982078,5.96563077 26.9086837,6.01528382 C27.0197562,6.06513589 27.1283427,6.12036123 27.2431939,6.17578559 C27.3862854,6.05110567 27.4629523,5.91836583 27.4098523,5.70572338 C27.3522776,5.47546852 27.5342495,5.33964402 27.7027973,5.23874583 C27.8677653,5.14003674 28.0421799,5.17337096 28.1775153,5.31854894 C28.3237889,5.47536901 28.4143772,5.63776138 28.334926,5.87667318 C28.2579608,6.10792309 28.0633603,6.14374494 27.8912327,6.22951836 C27.7785692,6.28573875 27.6656074,6.34136212 27.5169473,6.41499591 C27.7844361,6.72047664 28.0047911,6.97222461 28.2252457,7.22387307 C28.243244,7.26049096 28.2613417,7.29700934 28.2793401,7.33352772 Z" id="Fill-3" fill="#666666"></path>
                            <path d="M19.759942,46.1033705 C19.3630782,46.5573175 19.0087356,46.9589663 18.6583855,47.3640022 C18.1656996,47.9337021 17.677106,48.5069881 17.1836215,49.0760903 C17.0799139,49.1957283 17.0510674,49.2925544 17.1537768,49.4426747 C17.6402743,50.1542268 18.1146942,50.8740469 18.5899126,51.5932694 C19.0234084,52.2493358 19.4524125,52.9083906 19.8941929,53.5824874 C19.8406922,53.5889623 19.7807035,53.602012 19.7206149,53.6023108 C19.2490897,53.6040043 18.7765663,53.5854758 18.3064385,53.6103796 C18.0532083,53.6237281 17.9166616,53.5298905 17.7895973,53.3261772 C17.1885124,52.3624988 16.574751,51.4067896 15.9650821,50.4484904 C15.9453187,50.4174104 15.921463,50.38902 15.849796,50.3692962 C15.849796,50.9039315 15.8402137,51.4388657 15.8525908,51.9732022 C15.8647682,52.5023586 15.8992043,53.0309174 15.9247569,53.5795985 L14.2101378,53.5795985 L14.2101378,46.1305655 L15.8922173,46.1305655 L15.8922173,49.4798312 C16.2314878,49.05806 16.5679636,48.6537215 16.8889681,48.2375287 C17.3952289,47.5813627 17.888913,46.9155341 18.394575,46.25887 C18.4479759,46.1895378 18.5441974,46.1139297 18.6237498,46.1103436 C18.9770943,46.0943055 19.3316366,46.1033705 19.759942,46.1033705" id="Fill-5" fill="#666666"></path>
                            <path d="M9.52925928,46.3598116 L10.5930118,46.3598116 C10.5798766,46.5750891 10.5620997,46.7885422 10.5547914,47.0024008 C10.5076825,48.3926839 10.4774617,49.7838793 10.4118845,51.1732502 C10.3700099,52.0592935 10.0690858,52.8595906 9.43839935,53.4840373 C9.07407078,53.8448602 8.58589617,53.9787498 8.09426493,54.0625702 C7.38575498,54.1833851 6.67615866,54.1440594 5.99905465,53.9189505 C5.00068177,53.5869123 4.38836484,52.9836488 4.24061869,51.8121906 C4.19123829,51.4204545 4.17435019,51.022333 4.17138737,50.6269481 C4.16269642,49.4532601 4.17010348,48.2794707 4.16674561,47.1057826 C4.16605429,46.8629366 4.14580832,46.6202934 4.13385827,46.3626496 L5.86118458,46.3626496 C5.83550677,46.7441489 5.79422476,47.1345674 5.78592885,47.5257967 C5.76449776,48.5274858 5.74079517,49.5297829 5.75244894,50.5313706 C5.75788079,51.0001363 5.80103926,51.4775172 5.9011827,51.9339177 C6.06631075,52.6870848 6.3581489,53.1837231 7.14645757,53.2889294 C7.64994011,53.3560262 8.13969489,53.3859259 8.61345043,53.1375054 C9.04701032,52.9101667 9.23356946,52.5055585 9.31208429,52.0627396 C9.42773319,51.4102177 9.53637006,50.7476616 9.55177674,50.08693 C9.57873844,48.9237828 9.53261715,47.7588113 9.51819807,46.5945493 C9.51730923,46.5202562 9.52501257,46.4458618 9.52925928,46.3598116" id="Fill-7" fill="#666666"></path>
                            <path d="M26.1706176,50.7620592 C25.8581655,49.9118074 25.5600067,49.1005543 25.2363599,48.220014 C24.8913232,49.1048105 24.5734737,49.9201218 24.2451292,50.7620592 L26.1706176,50.7620592 Z M22.2194882,53.5768977 C22.3252381,53.3003431 22.4208928,53.0299254 22.5312406,52.7654466 C22.8232024,52.0660427 23.1286578,51.3720828 23.4156219,50.6706002 C23.7959418,49.7406682 24.1658667,48.8064799 24.5362913,47.8724897 C24.7550877,47.3209642 24.9620897,46.7647867 25.1863836,46.2155378 C25.2096725,46.1586234 25.3145229,46.1021049 25.3822908,46.1011151 C25.6000877,46.0979477 25.8182844,46.1209114 26.0186895,46.1326903 C26.9833328,48.596738 27.9574716,51.0851351 28.9370079,53.5874887 C28.9086213,53.5919429 28.8560462,53.607186 28.8034711,53.607384 C28.3148024,53.6092647 27.8260338,53.6036227 27.3375651,53.6115412 C27.1981311,53.6138178 27.1285641,53.5704639 27.0857843,53.4373336 C26.9168643,52.9120383 26.7265544,52.3933748 26.56673,51.865605 C26.4275959,51.4062314 26.4409896,51.4022721 25.9477231,51.4022721 C25.356603,51.4022721 24.7654828,51.4063304 24.1744626,51.3995007 C24.0291314,51.397818 23.9496691,51.4347381 23.9024914,51.5818248 C23.7142805,52.1696764 23.5089777,52.7520841 23.3197673,53.3396388 C23.2566971,53.5356224 23.1924276,53.6465807 22.938048,53.5873897 C22.7203511,53.5368101 22.4811643,53.5768977 22.2194882,53.5768977 Z" id="Fill-9" fill="#666666"></path>
                            <path d="M35.5940215,46.6374584 C35.4992009,46.9603053 35.415381,47.2615761 35.3195869,47.5587703 C35.3003112,47.6185273 35.2356696,47.6629722 35.1919587,47.7144766 C35.1417252,47.6683414 35.0623834,47.6310554 35.0458336,47.5744801 C34.9403043,47.2158386 34.6846585,47.0059434 34.3645659,46.8891139 C33.9833363,46.7500123 33.6053193,46.7902812 33.2409316,46.993117 C32.8021671,47.2373154 32.6564315,47.7965058 32.903705,48.2527869 C33.0599547,48.5411318 33.3169634,48.6838129 33.5764059,48.8337523 C34.0692006,49.1186172 34.5650132,49.3980136 35.0568344,49.6845689 C35.4755444,49.9284689 35.7207735,50.3148512 35.8286393,50.7785895 C36.032786,51.6563514 35.8765364,52.4566579 35.2436525,53.1181611 C34.835067,53.5452099 34.3043051,53.7083734 33.7436562,53.8096919 C33.0202351,53.940342 32.3310819,53.8662671 31.666948,53.5350681 C31.5154686,53.4595019 31.497848,53.3781687 31.5413642,53.2256441 C31.6362822,52.8924565 31.7082252,52.5524083 31.7980809,52.2175304 C31.8170645,52.1469356 31.8722629,52.0864826 31.9108142,52.0213564 C31.9700041,52.0779317 32.0623909,52.123868 32.0832242,52.1924742 C32.2743258,52.821464 32.7161082,53.1149793 33.329035,53.1541545 C33.7621531,53.1818952 34.1597377,53.0789859 34.4547136,52.7071203 C34.7150323,52.3792025 34.7208734,51.5852595 34.2839586,51.274344 C33.9402095,51.0296485 33.5627766,50.8350653 33.2108499,50.6017048 C32.8263104,50.3465692 32.4358324,50.0951125 32.080401,49.8011 C31.5331867,49.3485972 31.4126652,48.2635252 31.7152345,47.619621 C31.8574654,47.3170577 32.0300702,47.0241389 32.2266234,46.7556798 C32.3262143,46.6197599 32.5085542,46.5461823 32.6556527,46.4477472 C33.4980377,45.8838837 34.9951134,46.0504277 35.5940215,46.6374584" id="Fill-11" fill="#666666"></path>
                            <path d="M25.2972341,65.759912 L24.8031496,65.759912 C24.8724675,65.2348791 24.940325,64.7072901 25.0121741,64.1803146 C25.1029104,63.5152048 25.1925758,62.8498905 25.2947028,62.1867234 C25.309793,62.088874 25.3748272,61.9445028 25.4454107,61.9223154 C25.5972869,61.8746688 25.7481896,61.8863249 25.8306505,62.1065626 C26.0347099,62.6513289 26.2587273,63.1884268 26.4912147,63.7206169 C26.6083346,63.9885012 26.7614764,64.2390037 26.9164681,64.5318361 C27.0260915,64.2910469 27.1390251,64.0544498 27.2425151,63.8134562 C27.4886325,63.240061 27.738644,62.6683017 27.9696711,62.0882606 C28.0636202,61.852277 28.2408091,61.8915394 28.3943404,61.9238491 C28.4557723,61.9368343 28.5189567,62.0920437 28.5310289,62.1893818 C28.6710276,63.3178701 28.8017775,64.4476877 28.9334035,65.577403 C28.9409,65.6415112 28.9343771,65.7075621 28.9343771,65.7620591 L28.0858175,65.7620591 C28.0295454,64.9294705 27.9727865,64.0892135 27.9159303,63.2490586 C27.8961669,63.245889 27.8763062,63.2427194 27.8564455,63.2395498 C27.6563778,63.7456671 27.4609832,64.2538294 27.2543926,64.7570839 C27.1232533,65.0767047 26.9795551,65.3910087 26.8308917,65.702143 C26.8091811,65.747438 26.719029,65.7949823 26.6768736,65.7822016 C26.6112553,65.7623659 26.5347331,65.7039835 26.5063049,65.6403865 C26.3649432,65.32506 26.2397427,65.0018606 26.105196,64.6831601 C25.9445577,64.302703 25.7810961,63.923575 25.6165635,63.5450606 C25.590764,63.4856557 25.552795,63.4321811 25.5204726,63.3759458 C25.4978859,63.3774795 25.4753965,63.3790132 25.4529072,63.3805469 C25.4013082,64.1697833 25.3496119,64.9590196 25.2972341,65.759912 Z M10.2380674,62.7604522 C10.0659681,62.5833596 9.96384331,62.4230296 9.81359792,62.3348777 C9.46446127,62.1300774 9.15819183,62.221779 8.98609257,62.5456929 C8.86368986,62.7760316 9.03284725,63.1038896 9.33218229,63.2573173 C9.62920586,63.4096603 9.91572276,63.5797521 10.2062322,63.7430402 C10.8223433,64.0894357 10.6922708,65.322379 9.88830035,65.6291357 C9.43588312,65.8017912 8.98041897,65.8490225 8.51591907,65.6745922 C8.34003741,65.6085275 8.25524858,65.5028241 8.320495,65.3162655 C8.37050675,65.1732899 8.40528383,65.0255812 8.46485665,64.8171326 C8.52705614,64.9282592 8.55626468,64.9815053 8.58652389,65.0342584 C8.74401888,65.3091661 9.10030007,65.4802438 9.42411565,65.4103337 C9.63866186,65.3640884 9.84858514,65.2849095 9.89386888,65.0384983 C9.93873237,64.793862 9.79930885,64.5091925 9.57373064,64.3869237 C9.33270762,64.2562735 9.0815982,64.1403153 8.85045145,63.9959592 C8.08083785,63.5152651 8.1261216,62.7377733 8.67940286,62.1530521 C8.99407764,61.8204611 9.97329931,61.8196723 10.3183384,62.1229779 C10.3510141,62.1516717 10.3855811,62.2073829 10.3779112,62.2426831 C10.3423986,62.4057739 10.2921768,62.5662025 10.2380674,62.7604522 Z M30.1835663,64.8777493 C30.2825874,65.1367783 30.4022539,65.3691645 30.7002731,65.4253121 C31.0052696,65.4828412 31.2914368,65.356435 31.4020231,65.1003663 C31.509073,64.8525864 31.4274475,64.6277985 31.1384129,64.4237329 C30.8836915,64.2438434 30.6218017,64.074611 30.3602942,63.90528 C29.9825611,63.6605592 29.9451892,63.2663416 30.0001478,62.8833732 C30.1195276,62.0499409 31.1125106,61.6250345 31.8026955,62.0934578 C31.8514414,62.1266136 31.8889088,62.2326921 31.8775348,62.2943657 C31.8500077,62.4439612 31.7906524,62.58734 31.7502219,62.7140422 C31.6038886,62.5763867 31.4863249,62.4266926 31.3360728,62.3328501 C31.0621398,62.1618415 30.7211096,62.2665386 30.6009652,62.5288241 C30.4846441,62.7827219 30.6273453,63.136679 30.8934407,63.2737424 C31.1343985,63.397879 31.3812822,63.5146148 31.606756,63.6648023 C31.8715132,63.8410408 32.0511085,64.0888206 32.0365803,64.4387319 C32.0288383,64.626121 32.0469986,64.8233778 31.9959587,64.9983335 C31.8336635,65.5542839 31.3784148,65.7236149 30.8893308,65.7782824 C30.6453144,65.8056161 30.3871522,65.7340748 30.1400773,65.6833544 C30.0039711,65.6553299 29.9251174,65.5718486 29.998523,65.3933405 C30.0643778,65.2331865 30.082538,65.0522115 30.1216303,64.8804136 C30.1422757,64.8795255 30.162921,64.8786374 30.1835663,64.8777493 Z M11.3681102,61.9075547 C11.6842211,61.9075547 11.9378572,61.89705 12.1897686,61.9150728 C12.2511893,61.9195013 12.3315825,62.0051869 12.3613826,62.0743945 C12.5746784,62.5697645 12.7772423,63.0704897 13.0113311,63.637745 C13.1762377,63.2953115 13.3179558,63.0146705 13.4471214,62.7274383 C13.5125666,62.58202 13.5554941,62.424964 13.6087701,62.2731604 C13.7483802,61.8753196 13.7828755,61.8554431 14.2101378,61.9398928 C14.1213125,62.1523561 14.043219,62.3657462 13.9451949,62.5680137 C13.732474,63.0070494 13.5050927,63.4379492 13.2942882,63.8781178 C13.2494443,63.9718365 13.2333465,64.0903751 13.2321009,64.1978941 C13.2259684,64.7275588 13.2293221,65.2574296 13.2293221,65.7843137 L12.4559571,65.7843137 C12.4559571,65.3418794 12.4699469,64.8989301 12.449633,64.4577316 C12.4405301,64.2614374 12.3908952,64.0538145 12.3103104,63.8772939 C12.0171964,63.2348578 11.7032893,62.6034414 11.3681102,61.9075547 Z M18.0856299,62.3499074 L18.0856299,61.8994133 L20.6692913,61.8994133 L20.6692913,62.3702174 C20.3783289,62.337528 20.0984193,62.306096 19.8010578,62.2726329 L19.8010578,65.5253204 L18.993906,65.5253204 L18.993906,62.2587061 C18.8322817,62.2906217 18.6829707,62.3315318 18.5311389,62.3467159 C18.3831853,62.3615131 18.232517,62.3499074 18.0856299,62.3499074 Z" id="Combined-Shape" fill="#666666"></path>
                            <g id="Group-17" transform="translate(0.000000, 56.460553)">
                                <mask id="mask-2" fill="white">
                                    <use xlink:href="#path-1"></use>
                                </mask>
                                <g id="Clip-16"></g>
                                <path d="M3.87380914,0.0645491146 C4.02334906,1.30751802 4.17237826,2.54630319 4.32293962,3.79724113 L3.44694622,3.79724113 C3.38535293,3.01408505 3.32284034,2.21907504 3.26042989,1.42406503 C3.24459746,1.41699252 3.22886717,1.40992001 3.21313687,1.40274789 C3.10200338,1.63335159 2.98913343,1.86315839 2.88004283,2.09475823 C2.63183108,2.62151088 2.38862442,3.15055463 2.13387541,3.67431889 C2.1048663,3.73408659 2.01365103,3.80232138 1.95379421,3.8001299 C1.89424381,3.79793842 1.81232372,3.72312918 1.78413177,3.66117 C1.57769722,3.20733394 1.38862728,2.74602692 1.18106914,2.29268892 C1.05195818,2.01058538 0.900171071,1.73834352 0.758598442,1.46171869 C0.732857964,1.46610165 0.707015342,1.47058423 0.681274864,1.47496719 C0.626320986,2.24477515 0.571367109,3.01458311 0.515391784,3.79823725 L-3.06434261e-05,3.79823725 C0.179233399,2.55716099 0.358497442,1.31608473 0.53765934,0.0752076876 C0.703950999,0.0670394354 0.84664722,0.0600665372 0.99169277,0.0528944134 C1.38331576,0.9059787 1.77555161,1.76025834 2.19546869,2.67500297 C2.43990109,2.19347454 2.6665603,1.77848749 2.8630868,1.35035154 C3.03285138,0.98058871 3.17033822,0.596481633 3.31824383,0.217255585 C3.36533256,0.0966244463 3.41793711,0.0155396017 3.57728292,0.0602657629 C3.66277808,0.0842724552 3.76114348,0.0645491146 3.87380914,0.0645491146" id="Fill-15" fill="#666666" mask="url(#mask-2)"></path>
                            </g>
                            <path d="M29.195374,60.3273971 L28.4113579,60.3273971 C28.3305865,59.5246554 28.2493213,58.7183268 28.1681549,57.9121007 C28.143963,57.9085139 28.1197711,57.9050295 28.0955791,57.9015451 C27.8197911,58.5413404 27.5431144,59.1808282 27.2688075,59.8214434 C27.2121292,59.9537477 27.171151,60.0936356 27.1107206,60.2239928 C27.0382435,60.3804828 26.8707761,60.3888863 26.7957317,60.2309615 C26.5451231,59.7033841 26.3035987,59.1710924 26.0638517,58.6379809 C25.9604682,58.4080113 25.87002,58.1716877 25.7127231,57.9426404 C25.6463681,58.7294974 25.5800131,59.5162519 25.5124731,60.3178663 L25.0615157,60.3178663 C25.2274033,59.0346889 25.3925009,57.7579678 25.5572035,56.4841162 C25.8457293,56.4300057 26.0120119,56.5118888 26.1265533,56.8203597 C26.349909,57.4219292 26.6271782,58.0021824 26.8899322,58.5874573 C26.9683338,58.7618817 27.0728034,58.9235983 27.1836914,59.1245656 C27.3426669,58.765981 27.4886085,58.4446998 27.6282305,58.1204467 C27.8223584,57.6695258 28.0134253,57.2171701 28.2024186,56.7639946 C28.2795366,56.5788096 28.350335,56.4000809 28.6044984,56.4802219 C28.6618678,56.4983612 28.73237,56.4721258 28.78342,56.4676166 C28.9206721,57.753971 29.0569369,59.0301796 29.195374,60.3273971" id="Fill-18" fill="#666666"></path>
                            <path d="M36.5862809,60.2897892 C36.0592675,60.5122134 35.941333,60.0141588 35.7162472,59.7443494 C35.1656274,59.0840211 34.640654,58.4001023 34.0597248,57.6680836 C33.8839889,58.5926045 34.0696336,59.442984 34.0268897,60.3046992 L33.5875984,60.3046992 C33.6177135,59.0264237 33.6478285,57.7511097 33.6781379,56.4643579 C33.7777119,56.4643579 33.906818,56.4531244 34.0327184,56.4692598 C34.0934342,56.4770212 34.162116,56.5234872 34.2036942,56.5739361 C34.8374704,57.3421065 35.4672637,58.1138511 36.0981256,58.8845746 C36.1398981,58.9356362 36.1827392,58.9857786 36.2925134,59.0305086 C36.2680328,58.1841119 36.2435522,57.3377152 36.218683,56.4780424 L36.6879921,56.4780424 C36.6540884,57.7470248 36.6202818,59.0163135 36.5862809,60.2897892" id="Fill-20" fill="#666666"></path>
                            <path d="M9.73209728,57.690419 L9.73209728,60.3312267 L9.3011811,60.3312267 C9.32881402,59.0484371 9.35654528,57.7641059 9.38417819,56.4816246 C9.50690375,56.4735057 9.6280559,56.4555207 9.748028,56.4618925 C9.80250713,56.4647701 9.86937683,56.5026927 9.90556513,56.546987 C10.4998204,57.2746069 11.0895521,58.006132 11.6817422,58.7354989 C11.7645426,58.8374479 11.8555051,58.9322029 11.9650534,59.055631 L11.9650534,56.464359 C12.1062664,56.4717586 12.250233,56.4793636 12.4015748,56.4873798 L12.4015748,60.3083087 C12.1028246,60.3937115 11.9167695,60.3362625 11.7267809,60.08992 C11.1377376,59.3263303 10.5121126,58.5933664 9.89986154,57.8494059 C9.86888514,57.8116889 9.82915667,57.7817825 9.73209728,57.690419" id="Fill-22" fill="#666666"></path>
                            <path d="M20.4599821,57.3658327 C20.3365622,57.2459145 20.2388548,57.14043 20.1304742,57.0477974 C19.7928159,56.7593214 19.1453465,56.743998 18.6855297,57.1037526 C18.0490244,57.6016158 18.0387394,59.0483453 18.497586,59.6198598 C18.7489861,59.932952 19.4384688,60.0724447 19.8422033,59.9199024 C19.8882917,59.9025029 19.9185645,59.7841665 19.920214,59.7118004 C19.9279763,59.3530344 19.923707,58.9939718 19.923707,58.6186961 L20.6665552,58.6186961 C20.6665552,59.053486 20.6618009,59.4785876 20.669175,59.9033927 C20.6716977,60.0461477 20.6338567,60.1153503 20.4902549,60.16745 C19.6938471,60.4560247 18.9179123,60.3758486 18.154009,60.0556383 C17.6977822,59.8644415 17.2783291,59.0388546 17.312483,58.4312559 C17.346734,57.820296 17.5823186,57.3027595 18.0150645,56.88181 C18.0946277,56.804402 18.1984479,56.7423174 18.30188,56.7030696 C19.0030061,56.4368374 19.7062668,56.3380754 20.4189392,56.6759818 C20.6161006,56.7695041 20.6704364,56.8826998 20.5686538,57.0796306 C20.5256702,57.1626737 20.5010251,57.2557017 20.4599821,57.3658327" id="Fill-24" fill="#666666"></path>
                            <path d="M14.9719937,57.7146455 C14.9436918,57.7161741 14.91539,57.7176008 14.8870881,57.7191295 C14.7488365,58.0928299 14.6106868,58.4664284 14.4662251,58.8571477 L15.374939,58.8571477 C15.235873,58.4628616 15.1039333,58.0887535 14.9719937,57.7146455 M16.7937992,60.3418605 C16.5255423,60.3418605 16.2805988,60.3534781 16.0377932,60.3349306 C15.9634753,60.3292237 15.856987,60.2555435 15.8313321,60.1878759 C15.7381803,59.9428866 15.6637606,59.6896426 15.6010485,59.4347681 C15.5621589,59.2762996 15.4906916,59.2105682 15.3228147,59.218619 C15.0605643,59.2313577 14.796685,59.2319691 14.5345364,59.2183133 C14.3665577,59.209651 14.2976355,59.27579 14.2527394,59.4318128 C14.1661031,59.7327501 14.0567642,60.0270634 13.9533301,60.3346249 L13.4350394,60.3346249 C13.5311436,60.0941196 13.6230737,59.8693082 13.7108299,59.6429683 C13.9803085,58.9482544 14.2484636,58.2531328 14.5165169,57.5579094 C14.6323713,57.2574815 14.7516871,56.9581747 14.8592953,56.6547915 C14.9095871,56.513036 14.9904205,56.4606548 15.1416013,56.4605529 C15.2866738,56.460451 15.351422,56.5183353 15.3982524,56.647454 C15.7446958,57.6034627 16.0939897,58.5584523 16.4484757,59.5115056 C16.55079,59.7864562 16.6733636,60.0537636 16.7937992,60.3418605" id="Fill-26" fill="#666666"></path>
                            <path d="M7.08488724,58.8624373 C6.95058193,58.4477217 6.82385753,58.0559834 6.6970307,57.6643473 C6.66906323,57.667513 6.64099331,57.6706788 6.61302585,57.6738446 C6.46652958,58.0631319 6.31993087,58.4523171 6.16554634,58.8624373 L7.08488724,58.8624373 Z M8.52608268,60.3454531 C8.40663188,60.3454463 8.33020795,60.3454463 8.25378402,60.3454463 C7.54967994,60.3456506 7.54967994,60.3456506 7.38095312,59.6443819 C7.27994241,59.2242539 7.27994241,59.2242539 6.85356657,59.2241518 C6.79394361,59.2241518 6.73432066,59.2241518 6.67459525,59.2241518 C5.93535256,59.2241518 5.93535256,59.2241518 5.75853259,59.9437002 C5.65424364,60.3679131 5.65424364,60.3679131 5.16732283,60.3294133 C5.2196722,60.1731673 5.26239174,60.0216189 5.32058047,59.8761978 C5.68887003,58.9552657 6.06197451,58.0362739 6.42975185,57.1152397 C6.47974498,56.9898345 6.51416648,56.8574849 6.54633419,56.7261566 C6.57655545,56.6024874 6.57604322,56.4653382 6.758805,56.4620703 C6.93060516,56.4591088 7.07966255,56.4415439 7.1586476,56.666824 C7.50030148,57.642289 7.85998567,58.6115246 8.21710873,59.5815772 C8.30746517,59.8268731 8.41277857,60.0667566 8.52608268,60.3454531 Z" id="Fill-28" fill="#666666"></path>
                            <path d="M23.0442915,58.3924027 C23.0442915,58.7873054 23.0387164,59.1865615 23.052812,59.5852371 C23.0542846,59.6252885 23.1730454,59.6913636 23.2401573,59.6944594 C23.4313947,59.7030694 23.625893,59.6983291 23.8157629,59.6755946 C24.295329,59.6181296 24.3162621,59.6315768 24.2695572,60.0864598 L22.2194882,60.0864598 L22.2194882,56.4605527 L24.2768154,56.4605527 L24.2768154,56.9171771 C23.8948666,56.8990863 23.510288,56.8809954 23.087525,56.8610665 C23.0641726,57.2529701 23.0421877,57.6233002 23.0196768,58.0000153 L24.2691365,58.0000153 L24.2691365,58.3924027 L23.0442915,58.3924027 Z" id="Fill-30" fill="#666666"></path>
                            <path d="M32.5163006,59.9024337 C32.5247661,60.0562584 32.5326044,60.1987422 32.5406518,60.3454531 L30.4872047,60.3454531 L30.4872047,56.4605527 L32.5541339,56.4605527 C32.5455639,56.630358 32.538039,56.7800587 32.5289465,56.9618235 C32.1485237,56.9420284 31.7549324,56.9216147 31.3449328,56.900273 L31.3449328,58.1115916 L32.5080442,58.1115916 L32.5080442,58.5296609 L31.3266432,58.5296609 L31.3266432,59.9024337 L32.5163006,59.9024337 Z" id="Fill-32" fill="#666666"></path>
                            <path d="M22.8167541,62.2705357 L22.8167541,63.4242905 C23.2096753,63.4061257 23.5872742,63.3886372 23.986912,63.3701825 L23.986912,63.8384093 L22.8200075,63.8384093 L22.8200075,65.0883023 L24.0280512,65.0883023 L24.0280512,65.5253204 L21.961122,65.5253204 L21.961122,61.8994133 L24.0232236,61.8994133 L24.0232236,62.3690894 C23.6314569,62.3371077 23.232029,62.3044497 22.8167541,62.2705357" id="Fill-34" fill="#666666"></path>
                            <g id="Group-38" transform="translate(14.985236, 61.899413)" fill="#666666">
                                <path d="M0.22170174,2.97035601 C0.27579013,3.05796051 0.328260923,3.14653624 0.384371309,3.23287816 C0.556847559,3.49821685 1.04697936,3.61573509 1.32975549,3.46373836 C1.79006285,3.21627021 1.56683451,2.7161864 1.26444502,2.50756725 C1.00765154,2.33031867 0.726493014,2.18502339 0.45291697,2.03079284 C0.0391155105,1.79750457 -0.0141640812,1.40580949 0.0296121298,1.01819355 C0.114839257,0.262871787 0.912112237,-0.097841217 1.53751557,0.0850404701 C2.23742944,0.2896776 2.15634741,0.24286455 1.87518888,0.847646422 C1.73728876,0.717502258 1.61516021,0.557541483 1.45259174,0.459059258 C1.1761849,0.291522927 0.94972136,0.363393585 0.74337668,0.636793452 C0.585964299,0.845509727 0.594456682,1.03790942 0.839522584,1.22487025 C1.0792302,1.40765482 1.35755793,1.5447918 1.62345039,1.69455471 C2.16807499,2.00107336 2.38412525,2.47473984 2.19082244,3.0233849 C2.10832501,3.25754727 1.92139149,3.50958019 1.70705992,3.63836464 C1.26737692,3.90244074 0.765315335,3.96401641 0.258704264,3.77608436 C0.0705575466,3.70635039 -0.0346873395,3.60495449 0.0556958768,3.38846842 C0.109480968,3.2593926 0.121006344,3.1140002 0.151538482,2.97598912 C0.174993634,2.97414379 0.198347687,2.97220134 0.22170174,2.97035601" id="Fill-36"></path>
                            </g>
                            <g id="Group-47" transform="translate(37.721457, 56.460553)">
                                <mask id="mask-4" fill="white">
                                    <use xlink:href="#path-3"></use>
                                </mask>
                                <g id="Clip-46"></g>
                                <path d="M2.77741203,0.0468777984 L2.77741203,0.52332597 C2.50183686,0.507188691 2.21611159,0.490453736 1.89242495,0.471527298 L1.89242495,3.80606682 L1.01515194,3.80606682 C1.01515194,3.62477147 1.01281742,3.45433392 1.01555795,3.28389636 C1.02976809,2.42264382 1.04306471,1.56139128 1.0623499,0.700337971 C1.06620694,0.525218614 0.993329232,0.459972209 0.820574557,0.475910262 C0.580727731,0.498024311 0.340373401,0.513165461 0.0826624016,0.532589963 L0.0826624016,0.0468777984 L2.77741203,0.0468777984 Z" id="Fill-45" fill="#666666" mask="url(#mask-4)"></path>
                            </g>
                            <path d="M28.2695533,7.25181411 C28.2499949,7.21449468 28.2304364,7.17707355 28.2107699,7.13975412 C28.1297267,7.03725278 28.1495012,6.97674851 28.2700936,6.90068601 C28.355243,6.84699484 28.4249402,6.73300277 28.4454712,6.63538245 C28.4922602,6.41207596 28.6585609,6.23900326 28.9418881,6.21775051 C29.149683,6.20219227 29.3163079,6.28069528 29.397027,6.48986716 C29.4980609,6.75150996 29.4660759,6.98051096 29.2851873,7.10965452 C29.072854,7.26116939 28.9632835,7.26523691 28.7869334,7.17432798 C28.5647669,7.2075799 28.4171601,7.22974785 28.2695533,7.25181411" id="Fill-50" fill="#FFFFFF"></path>
                            <path d="M20.0337106,10.1007411 L19.3774606,10.1007411" id="Fill-52" fill="#FFFFFF"></path>
                        </g>
                        <text id="ISO27001认证—-UKAS授信认证" font-family="PingFangSC-Medium, PingFang SC" font-size="14" font-weight="400" fill="#666666">
                            <tspan x="92" y="35">ISO27001认证—</tspan>
                            <tspan x="92" y="55">UKAS授信认证</tspan>
                        </text>
                    </g>
                </g>
            </g>
        </g>
    </g>
</svg>